<svg width="1577" height="482" viewBox="0 0 1577 482" fill="none" xmlns="http://www.w3.org/2000/svg">
<path d="M1552 174.575V294.132H1301.3V359.349L1229.02 480.275H111.275V452.815H21V262.042H111.275V1.00207H351.641V174.46H1191.86V174.575H1301.79V118.076H1369.98V174.575H1552Z" fill="white"/>
<path d="M1552 174.575V294.132H1301.3V359.349L1229.02 480.275H111.275V452.815H21V262.042H111.275V1.00207H351.641V174.46H1191.86V174.575H1301.79V118.076H1369.98V174.575H1552Z" stroke="#4D4D4D" stroke-width="2" stroke-miterlimit="10"/>
<path d="M351.673 274.639H111.305V0.999938H351.673V274.639Z" fill="white" stroke="#4D4D4D" stroke-width="2" stroke-miterlimit="10"/>
<path d="M587.968 274.639H351.672V174.458H587.968V274.639Z" fill="#CCCCCC" stroke="#4D4D4D" stroke-width="2" stroke-miterlimit="10"/>
<path d="M198.83 480.277H111.304V317.45H198.83V480.277Z" fill="white" stroke="#4D4D4D" stroke-width="2" stroke-miterlimit="10"/>
<path d="M1246.85 256.061H1192.38V174.458H1246.85V256.061Z" fill="white" stroke="#4D4D4D" stroke-width="2" stroke-miterlimit="10"/>
<path d="M1370.01 174.574H1301.82V118.191H1370.01V174.574Z" fill="white" stroke="#4D4D4D" stroke-width="2" stroke-miterlimit="10"/>
<path d="M968.225 274.639H587.968V174.458H968.225V274.639Z" fill="white" stroke="#4D4D4D" stroke-width="2" stroke-miterlimit="10"/>
<path d="M1192.38 274.639H968.227V174.458H1192.38V274.639Z" fill="white" stroke="#4D4D4D" stroke-width="2" stroke-miterlimit="10"/>
<path d="M286.357 480.277H198.831V317.45H286.357V480.277Z" fill="white" stroke="#4D4D4D" stroke-width="2" stroke-miterlimit="10"/>
<path d="M353.618 480.277H286.356V317.45H353.618V480.277Z" fill="white" stroke="#4D4D4D" stroke-width="2" stroke-miterlimit="10"/>
<path d="M614.453 480.277H353.617V317.45H614.453V480.277Z" fill="#CCCCCC" stroke="#4D4D4D" stroke-width="2" stroke-miterlimit="10"/>
<path d="M769.629 480.277H614.453V317.45H769.629V480.277Z" fill="white" stroke="#4D4D4D" stroke-width="2" stroke-miterlimit="10"/>
<path d="M968.226 480.277H769.629V317.45H968.226V480.277Z" fill="white" stroke="#4D4D4D" stroke-width="2" stroke-miterlimit="10"/>
<path d="M1192.38 317.45H968.225V480.277H1192.38H1234.98L1301.31 365.914V317.45H1192.38Z" fill="#CCCCCC"/>
<path d="M1192.38 317.45H968.225V480.277H1192.38H1234.98L1301.31 365.914V317.45H1192.38Z" stroke="#4D4D4D" stroke-width="2" stroke-miterlimit="10"/>
<path d="M1301.33 256.061H1246.86V174.458H1301.33V256.061Z" fill="white" stroke="#4D4D4D" stroke-width="2" stroke-miterlimit="10"/>
<path d="M1333.22 294.052V215.259" stroke="#4D4D4D" stroke-width="2" stroke-miterlimit="10"/>
<path d="M1519.84 263.727H1489.87V206.13H1519.84V263.727Z" fill="white" stroke="#4D4D4D" stroke-width="2" stroke-miterlimit="10"/>
<path d="M1493.37 237.613H1411.14V231.962H1493.37V237.613Z" fill="white" stroke="#4D4D4D" stroke-width="2" stroke-miterlimit="10"/>
<path d="M1414.57 294.052V237.881" stroke="#4D4D4D" stroke-width="2" stroke-miterlimit="10"/>
<path d="M1421.4 174.626H1489.75V231.908H1421.4V174.626Z" stroke="#4D4D4D" stroke-width="2" stroke-miterlimit="10"/>
<path d="M1482.91 231.908V174.627" stroke="#4D4D4D" stroke-width="2" stroke-miterlimit="10"/>
<path d="M1476.08 231.908V174.626" stroke="#4D4D4D" stroke-width="2" stroke-miterlimit="10"/>
<path d="M1469.24 231.908V174.626" stroke="#4D4D4D" stroke-width="2" stroke-miterlimit="10"/>
<path d="M1462.41 231.908V174.626" stroke="#4D4D4D" stroke-width="2" stroke-miterlimit="10"/>
<path d="M1455.57 231.908V174.626" stroke="#4D4D4D" stroke-width="2" stroke-miterlimit="10"/>
<path d="M1448.74 231.908V174.627" stroke="#4D4D4D" stroke-width="2" stroke-miterlimit="10"/>
<path d="M1441.91 231.908V174.626" stroke="#4D4D4D" stroke-width="2" stroke-miterlimit="10"/>
<path d="M1435.07 231.908V174.626" stroke="#4D4D4D" stroke-width="2" stroke-miterlimit="10"/>
<path d="M1428.24 231.908V174.626" stroke="#4D4D4D" stroke-width="2" stroke-miterlimit="10"/>
<path d="M68.7664 402.746H63.084V330.122H68.7664V402.746Z" fill="white" stroke="#4D4D4D" stroke-width="2" stroke-miterlimit="10"/>
<path d="M83.6635 419.576H48.0713V400.383H83.6635V419.576Z" fill="white" stroke="#4D4D4D" stroke-width="2" stroke-miterlimit="10"/>
<path d="M21 332.42H63.0562V400.383H21V332.42Z" stroke="#4D4D4D" stroke-width="2" stroke-miterlimit="10"/>
<path d="M21 394.205H63.0562" stroke="#4D4D4D" stroke-width="2" stroke-miterlimit="10"/>
<path d="M21 388.026H63.0562" stroke="#4D4D4D" stroke-width="2" stroke-miterlimit="10"/>
<path d="M21 381.848H63.0562" stroke="#4D4D4D" stroke-width="2" stroke-miterlimit="10"/>
<path d="M21 375.669H63.0562" stroke="#4D4D4D" stroke-width="2" stroke-miterlimit="10"/>
<path d="M21 369.491H63.0562" stroke="#4D4D4D" stroke-width="2" stroke-miterlimit="10"/>
<path d="M21 363.312H63.0562" stroke="#4D4D4D" stroke-width="2" stroke-miterlimit="10"/>
<path d="M21 357.133H63.0562" stroke="#4D4D4D" stroke-width="2" stroke-miterlimit="10"/>
<path d="M21 350.955H63.0562" stroke="#4D4D4D" stroke-width="2" stroke-miterlimit="10"/>
<path d="M21 344.777H63.0562" stroke="#4D4D4D" stroke-width="2" stroke-miterlimit="10"/>
<path d="M21 338.599H63.0562" stroke="#4D4D4D" stroke-width="2" stroke-miterlimit="10"/>
<path d="M334.319 327.363H313.124V307.538H334.319V327.363Z" fill="white"/>
<path d="M239.293 327.363H218.097V307.538H239.293V327.363Z" fill="white"/>
<path d="M142.924 327.363H121.729V307.538H142.924V327.363Z" fill="white"/>
<path d="M124.769 309.225H103.574V282.863H124.769V309.225Z" fill="white"/>
<path d="M762.083 330.631H740.889V304.269H762.083V330.631Z" fill="white"/>
<path d="M645.503 330.631H624.309V304.269H645.503V330.631Z" fill="white"/>
<path d="M799.105 330.631H777.91V304.269H799.105V330.631Z" fill="white"/>
<path d="M1004.61 287.82H983.414V261.458H1004.61V287.82Z" fill="white"/>
<path d="M1157.06 287.82H1135.86V261.458H1157.06V287.82Z" fill="white"/>
<path d="M952.4 287.82H915.37V261.458H952.4V287.82Z" fill="white"/>
<path d="M634.906 287.82H597.876V261.458H634.906V287.82Z" fill="white"/>
<path d="M1217.39 269.242H1196.2V242.88H1217.39V269.242Z" fill="white"/>
<path d="M1276.79 269.242H1255.6V242.88H1276.79V269.242Z" fill="white"/>
<path d="M290.667 284.551H255.083V264.726H290.667V284.551Z" fill="white"/>
<path d="M1347 187.755H1322.09V161.393H1347V187.755Z" fill="white"/>
<path d="M68.7432 332.42H111.281" stroke="#4D4D4D" stroke-width="2" stroke-miterlimit="10"/>
<path d="M769.629 173.582V274.638" stroke="#4D4D4D" stroke-width="2" stroke-miterlimit="10"/>
<path d="M1080.3 174.02V275.076" stroke="#4D4D4D" stroke-width="2" stroke-miterlimit="10"/>
<path d="M1377.97 214.239L1389.92 203.267L1377.97 192.295V197.382H1358.31V209.268H1377.97V214.239Z" fill="#CCCCCC"/>
<path d="M1377.97 214.239L1389.92 203.267L1377.97 192.295V197.382H1358.31V209.268H1377.97V214.239Z" stroke="#4D4D4D" stroke-width="2" stroke-miterlimit="10"/>
<path d="M130.942 284.551L142.893 295.523L130.942 306.495V301.408H111.282V289.523H130.942V284.551Z" fill="#CCCCCC"/>
<path d="M130.942 284.551L142.893 295.523L130.942 306.495V301.408H111.282V289.523H130.942V284.551Z" stroke="#4D4D4D" stroke-width="2" stroke-miterlimit="10"/>
<circle cx="870" cy="221" r="20.25" fill="#CCCCCC" stroke="black" stroke-width="1.5"/>
<path d="M864.858 217.754V218.545C864.853 219.614 864.873 220.874 864.457 222.793L863.237 222.666C863.383 221.992 863.476 221.392 863.535 220.85L858.374 221.143L858.198 220.078L863.608 219.902C863.632 219.482 863.632 219.102 863.637 218.75H858.491V217.754H864.858ZM857.563 224.873V223.857H860.463V221.709H861.704V223.857H865.668V224.873H857.563ZM873.657 217.012V225.898H872.397V217.012H873.657ZM866.157 223.223C867.304 221.948 867.719 220.688 867.812 218.936H866.577V217.92H869.008C868.999 220.312 868.662 222.241 867.104 223.936L866.157 223.223ZM868.706 223.857C869.843 222.383 870.224 220.879 870.307 218.936H869.321V217.92H871.499C871.494 220.415 871.215 222.627 869.731 224.502L868.706 223.857ZM882.299 217.012V225.918H881.059V217.012H882.299ZM875.317 218.76V217.754H879.545V221.182H876.616V222.812C877.973 222.803 879.121 222.734 880.424 222.52L880.532 223.525C879.072 223.784 877.749 223.838 876.127 223.838H875.327V220.195H878.276V218.76H875.317Z" fill="black"/>
<circle cx="849" cy="346" r="20.25" fill="#CCCCCC" stroke="black" stroke-width="1.5"/>
<path d="M840.579 335.727V334.637H845.791V335.727H843.84V341H842.53V335.727H840.579ZM847.883 338.24V341H846.582V334.637H847.848V337.062H847.9C848.12 336.504 848.599 336.166 849.324 336.166C850.322 336.166 850.977 336.838 850.977 337.959V341H849.676V338.188C849.676 337.594 849.359 337.247 848.814 337.247C848.265 337.247 847.883 337.612 847.883 338.24ZM854.141 341.097C852.677 341.092 851.781 340.147 851.785 338.636C851.781 337.164 852.69 336.166 854.088 336.166C855.34 336.166 856.329 336.957 856.329 338.583V338.952H853.068C853.068 339.673 853.495 340.117 854.167 340.121C854.611 340.117 854.927 339.923 855.055 339.638H856.294C856.109 340.521 855.318 341.092 854.141 341.097ZM853.068 338.135H855.099C855.094 337.555 854.694 337.137 854.114 337.142C853.517 337.137 853.095 337.585 853.068 338.135ZM832.985 344.228H834.286V349.237C834.282 350.34 833.609 350.789 832.493 350.793L832.229 350.784V349.765C832.295 349.769 832.348 349.769 832.405 349.773C832.827 349.769 832.985 349.584 832.985 349.22V344.228ZM832.915 342.944C832.915 342.575 833.236 342.281 833.627 342.276C834.014 342.281 834.334 342.575 834.33 342.944C834.334 343.305 834.014 343.604 833.627 343.604C833.236 343.604 832.915 343.305 832.915 342.944ZM837.441 349.097C836 349.092 835.099 348.104 835.104 346.627C835.099 345.155 836 344.166 837.441 344.166C838.887 344.166 839.784 345.155 839.788 346.627C839.784 348.104 838.887 349.092 837.441 349.097ZM836.422 346.627C836.422 347.462 836.769 348.082 837.45 348.086C838.114 348.082 838.465 347.462 838.461 346.627C838.465 345.788 838.114 345.159 837.45 345.159C836.769 345.159 836.422 345.788 836.422 346.627ZM843.664 346.97V344.228H844.965V349H843.717V348.139H843.664C843.449 348.692 842.935 349.062 842.214 349.062C841.26 349.062 840.605 348.385 840.605 347.269V344.228H841.906V347.04C841.906 347.607 842.231 347.958 842.741 347.963C843.216 347.958 843.664 347.62 843.664 346.97ZM845.976 349V344.228H847.232V345.054H847.285C847.457 344.469 847.9 344.157 848.437 344.157C848.568 344.157 848.735 344.175 848.85 344.201V345.361C848.727 345.322 848.476 345.291 848.296 345.291C847.707 345.291 847.272 345.7 847.276 346.284V349H845.976ZM850.783 346.24V349H849.482V344.228H850.722V345.062H850.774C850.99 344.513 851.5 344.166 852.207 344.166C853.205 344.166 853.855 344.847 853.851 345.959V349H852.559V346.188C852.554 345.599 852.238 345.247 851.697 345.247C851.157 345.247 850.783 345.612 850.783 346.24ZM857.023 349.097C855.56 349.092 854.664 348.147 854.668 346.636C854.664 345.164 855.573 344.166 856.971 344.166C858.223 344.166 859.212 344.957 859.212 346.583V346.952H855.951C855.951 347.673 856.377 348.117 857.05 348.121C857.494 348.117 857.81 347.923 857.938 347.638H859.177C858.992 348.521 858.201 349.092 857.023 349.097ZM855.951 346.135H857.981C857.977 345.555 857.577 345.137 856.997 345.142C856.399 345.137 855.978 345.585 855.951 346.135ZM860.662 350.793C860.407 350.789 860.17 350.784 860.003 350.767V349.756C860.17 349.769 860.368 349.773 860.53 349.773C860.79 349.773 860.996 349.747 861.154 349.334L861.233 349.132L859.52 344.228H860.882L861.884 347.743H861.937L862.947 344.228H864.327L862.464 349.527C862.191 350.296 861.668 350.789 860.662 350.793ZM839.419 354.24V357H838.118V350.637H839.384V353.062H839.437C839.656 352.504 840.135 352.166 840.86 352.166C841.858 352.166 842.513 352.838 842.513 353.959V357H841.212V354.188C841.212 353.594 840.896 353.247 840.351 353.247C839.801 353.247 839.419 353.612 839.419 354.24ZM845.659 357.097C844.218 357.092 843.317 356.104 843.321 354.627C843.317 353.155 844.218 352.166 845.659 352.166C847.105 352.166 848.001 353.155 848.006 354.627C848.001 356.104 847.105 357.092 845.659 357.097ZM844.64 354.627C844.64 355.462 844.987 356.082 845.668 356.086C846.332 356.082 846.683 355.462 846.679 354.627C846.683 353.788 846.332 353.159 845.668 353.159C844.987 353.159 844.64 353.788 844.64 354.627ZM848.823 357V352.228H850.062V353.062H850.115C850.317 352.504 850.801 352.166 851.442 352.166C852.097 352.166 852.585 352.513 852.743 353.062H852.787C852.985 352.522 853.53 352.166 854.229 352.166C855.112 352.166 855.731 352.75 855.731 353.792V357H854.431V354.047C854.435 353.502 854.11 353.238 853.684 353.238C853.196 353.238 852.906 353.577 852.91 354.082V357H851.645V354.012C851.649 353.542 851.35 353.238 850.906 353.238C850.462 353.238 850.12 353.594 850.124 354.135V357H848.823ZM858.896 357.097C857.432 357.092 856.536 356.147 856.54 354.636C856.536 353.164 857.445 352.166 858.843 352.166C860.095 352.166 861.084 352.957 861.084 354.583V354.952H857.823C857.823 355.673 858.25 356.117 858.922 356.121C859.366 356.117 859.682 355.923 859.81 355.638H861.049C860.864 356.521 860.073 357.092 858.896 357.097ZM857.823 354.135H859.854C859.849 353.555 859.449 353.137 858.869 353.142C858.271 353.137 857.85 353.585 857.823 354.135Z" fill="black"/>
<circle cx="804" cy="397" r="20.25" fill="#CCCCCC" stroke="black" stroke-width="1.5"/>
<path d="M800.171 388.369V389.355H795.874V388.369H797.417V387.256H798.648V388.369H800.171ZM796.08 391.865C796.08 390.63 796.91 389.761 798.042 389.756C799.18 389.761 799.991 390.63 799.996 391.865C799.991 393.105 799.18 393.984 798.042 393.984C796.91 393.984 796.08 393.105 796.08 391.865ZM797.173 391.865C797.173 392.544 797.525 392.93 798.042 392.93C798.541 392.93 798.897 392.544 798.902 391.865C798.897 391.196 798.541 390.791 798.042 390.791C797.525 390.791 797.173 391.196 797.173 391.865ZM800.503 395.518V387.188H801.666V390.625H802.388V387.012H803.57V395.898H802.388V391.621H801.666V395.518H800.503ZM811.998 387.012V395.898H810.738V387.012H811.998ZM804.507 392.842C804.83 392.842 805.171 392.837 805.533 392.832V388.828H804.751V387.832H809.781V388.828H808.99V392.69C809.38 392.661 809.766 392.622 810.142 392.578L810.201 393.506C808.311 393.813 806.255 393.848 804.624 393.857L804.507 392.842ZM806.744 392.808C807.085 392.798 807.432 392.788 807.779 392.769V388.828H806.744V392.808ZM802.896 399.012V402.488H804.205V403.514H802.896V407.898H801.666V399.012H802.896ZM795.835 401.336V400.34H797.847V399.148H799.097V400.34H801.06V401.336H795.835ZM796.197 403.953C796.192 402.713 797.159 401.829 798.472 401.834C799.766 401.829 800.738 402.713 800.738 403.953C800.738 405.193 799.766 406.067 798.472 406.072C797.159 406.067 796.192 405.193 796.197 403.953ZM797.388 403.953C797.388 404.642 797.842 405.052 798.472 405.047C799.092 405.052 799.546 404.642 799.546 403.953C799.546 403.27 799.092 402.85 798.472 402.84C797.842 402.85 797.388 403.27 797.388 403.953ZM811.968 399.012V407.918H810.708V399.012H811.968ZM804.966 405.838V399.715H806.216V401.883H808.13V399.715H809.361V405.838H804.966ZM806.216 404.832H808.13V402.85H806.216V404.832Z" fill="black"/>
<circle cx="728" cy="449" r="20.25" fill="#CCCCCC" stroke="black" stroke-width="1.5"/>
<path d="M719.439 439.811V447.826H718.314V443.511H716.882V442.597H718.314V439.811H719.439ZM712.558 445.436C713.898 444.82 714.553 443.295 714.553 441.814V441.48H712.892V440.584H717.365V441.48H715.704V441.814C715.7 443.221 716.35 444.688 717.699 445.269L717.04 446.156C716.108 445.726 715.484 444.886 715.142 443.867C714.794 444.957 714.157 445.862 713.226 446.323L712.558 445.436ZM727.754 444.223V445.119H724.643V447.809H723.535V445.119H720.459V444.223H727.754ZM720.819 442.878C722.437 442.68 723.333 441.898 723.452 441.111H721.118V440.232H727.104V441.111H724.77C724.884 441.898 725.768 442.68 727.411 442.878L727.007 443.757C725.601 443.568 724.594 442.97 724.111 442.148C723.623 442.97 722.625 443.568 721.232 443.757L720.819 442.878ZM734.583 439.811V441.63H735.664V442.553H734.583V444.478H733.458V439.811H734.583ZM728.475 444.082V440.276H729.591V441.296H731.226V440.276H732.351V444.082H728.475ZM729.354 447.703V444.838H734.627V445.726H730.47V446.824H734.776V447.703H729.354ZM729.591 443.203H731.226V442.166H729.591V443.203ZM743.311 443.897V444.794H736.016V443.897H743.311ZM736.745 441.691C736.745 440.672 737.901 440.048 739.663 440.057C741.412 440.048 742.568 440.672 742.572 441.691C742.568 442.715 741.412 443.344 739.663 443.344C737.901 443.344 736.745 442.715 736.745 441.691ZM736.895 447.668V445.33H738.02V446.771H742.484V447.668H736.895ZM737.914 441.691C737.905 442.188 738.551 442.438 739.663 442.438C740.766 442.438 741.412 442.188 741.412 441.691C741.412 441.208 740.766 440.944 739.663 440.936C738.551 440.944 737.905 441.208 737.914 441.691ZM723.882 454.59V455.469H716.57V454.59H719.681V453.904H717.458V451.162H723.003V452.032H718.574V453.025H723.047V453.904H720.78V454.59H723.882ZM717.405 457.35C717.405 456.4 718.459 455.873 720.208 455.873C721.944 455.873 722.986 456.4 722.995 457.35C722.986 458.286 721.944 458.817 720.208 458.817C718.459 458.817 717.405 458.286 717.405 457.35ZM718.547 457.35C718.543 457.767 719.101 457.965 720.208 457.965C721.294 457.965 721.865 457.767 721.87 457.35C721.865 456.937 721.294 456.726 720.208 456.726C719.101 456.726 718.543 456.937 718.547 457.35ZM731.643 453.983V454.871H728.549V455.381H730.755V457.429H726.299V457.912H730.966V458.756H725.201V456.638H729.648V456.225H725.192V455.381H727.424V454.871H724.348V453.983H731.643ZM725.253 453.562V451.039H730.72V453.562H725.253ZM726.352 452.7H729.604V451.909H726.352V452.7ZM738.903 450.819V456.857H737.778V456.225H736.249V455.46H737.778V450.819H738.903ZM732.1 454.361C733.563 454.353 735.541 454.331 737.233 454.124L737.294 454.924C736.662 455.029 736.007 455.104 735.361 455.152V456.673H734.236V457.771H739.079V458.668H733.12V456.277H734.236V455.218C733.52 455.245 732.838 455.249 732.232 455.249L732.1 454.361ZM732.689 452.524C732.689 451.672 733.511 451.087 734.702 451.092C735.862 451.087 736.692 451.672 736.697 452.524C736.692 453.381 735.862 453.935 734.702 453.931C733.511 453.935 732.689 453.381 732.689 452.524ZM733.752 452.524C733.748 452.911 734.13 453.126 734.702 453.122C735.238 453.126 735.625 452.911 735.633 452.524C735.625 452.129 735.238 451.909 734.702 451.909C734.13 451.909 733.748 452.129 733.752 452.524Z" fill="black"/>
<circle cx="657" cy="449" r="20.25" fill="#CCCCCC" stroke="black" stroke-width="1.5"/>
<path d="M648.352 440.18V441.076H647.297V442.896H648.281V443.774H642.384V442.896H643.377V441.076H642.34V440.18H648.352ZM641.672 445.365V444.451H648.993V445.365H645.882V447.8H644.766V445.365H641.672ZM644.502 442.896H646.189V441.076H644.502V442.896ZM656.78 445.98V446.895H649.459V445.98H656.78ZM650.294 441.243V440.347H655.937V443.01H651.428V443.924H656.121V444.803H650.303V442.113H654.829V441.243H650.294ZM661.5 440.531V445.901H657.633V440.531H661.5ZM658.758 445.014H660.41V441.41H658.758V445.014ZM662.801 447.826V439.811H663.935V447.826H662.801ZM672.337 445.98V446.895H665.016V445.98H672.337ZM665.851 441.243V440.347H671.493V443.01H666.984V443.924H671.678V444.803H665.859V442.113H670.386V441.243H665.851ZM660.089 450.819V456.655H658.973V453.79H657.664V452.885H658.973V450.819H660.089ZM653.304 454.854C654.627 454.44 655.225 453.399 655.229 452.375V452.252H653.621V451.355H657.962V452.252H656.372V452.384C656.367 453.311 656.938 454.3 658.208 454.713L657.655 455.601C656.771 455.311 656.161 454.73 655.813 454.014C655.458 454.81 654.82 455.456 653.875 455.768L653.304 454.854ZM654.781 458.668V456.146H655.906V457.771H660.283V458.668H654.781Z" fill="black"/>
<circle cx="728" cy="346" r="20.25" fill="#CCCCCC" stroke="black" stroke-width="1.5"/>
<path d="M722.498 336.942V337.505H725.706V336.942H726.822V339.632H721.391V336.942H722.498ZM720.459 340.941V340.071H727.754V340.941H720.459ZM721.303 342.233V341.416H726.866V343.438H722.41V343.912H727.077V344.756H721.312V342.655H725.759V342.233H721.303ZM722.498 338.797H725.706V338.313H722.498V338.797ZM734.706 337.057V339.438H730.232V340.106H734.891V341.003H729.099V338.595H733.555V337.962H729.072V337.057H734.706ZM728.229 342.497V341.601H735.55V342.497H732.438V344.826H731.313V342.497H728.229ZM714.113 348.575V352.93C714.847 352.917 715.524 352.864 716.275 352.706L716.425 353.646C715.44 353.862 714.579 353.897 713.551 353.893H712.988V348.575H714.113ZM715.238 351.247V350.342H716.838V347.96H717.901V355.457H716.838V351.247H715.238ZM718.561 355.809V347.811H719.615V355.809H718.561ZM727.2 347.811V355.809H726.084V351.801H724.493V350.887H726.084V347.811H727.2ZM720.38 353.541C722.401 352.543 723.241 351.278 723.408 349.524H720.758V348.646H724.537C724.533 351.058 723.75 353.036 720.96 354.42L720.38 353.541ZM732.746 348.47V349.384H729.784V350.702H732.412V351.581H729.784V353.093C731.01 353.084 731.986 353.036 733.106 352.864L733.212 353.77C731.955 353.954 730.808 353.989 729.362 353.989H728.677V348.47H732.746ZM733.827 355.809V347.811H734.961V355.809H733.827ZM743.337 353.928V354.842H736.016V353.928H743.337ZM736.789 352.592V348.32H737.914V349.647H741.403V348.32H742.52V352.592H736.789ZM737.914 351.713H741.403V350.518H737.914V351.713Z" fill="black"/>
<circle cx="657" cy="346" r="20.25" fill="#CCCCCC" stroke="black" stroke-width="1.5"/>
<path d="M645.613 348.954V349.877H638.292V348.954H641.376V347.319H639.065V343.399H644.795V347.319H642.493V348.954H645.613ZM640.172 346.44H643.688V344.296H640.172V346.44ZM652.591 346.256V347.161H650.289V348.998H653.391V349.895H646.07V348.998H649.155V347.161H646.887V343.426H648.039V346.256H652.591ZM655.861 343.259C656.876 343.259 657.632 343.887 657.636 344.779C657.632 345.671 656.876 346.291 655.861 346.291C654.819 346.291 654.063 345.671 654.068 344.779C654.063 343.887 654.819 343.259 655.861 343.259ZM653.734 346.713C654.811 346.722 656.538 346.713 657.803 346.52L657.891 347.354C657.412 347.447 656.885 347.508 656.362 347.552V350.176H655.307V347.609C654.771 347.627 654.266 347.627 653.857 347.627L653.734 346.713ZM655.061 344.779C655.061 345.206 655.377 345.46 655.861 345.465C656.322 345.46 656.639 345.206 656.643 344.779C656.639 344.353 656.322 344.085 655.861 344.085C655.377 344.085 655.061 344.353 655.061 344.779ZM656.933 348.805V347.952H658.208V342.942H659.262V350.439H658.208V348.805H656.933ZM659.825 350.809V342.811H660.879V350.809H659.825ZM668.324 342.811V350.826H667.19V342.811H668.324ZM661.864 346.221C661.859 344.476 662.751 343.373 663.982 343.373C665.186 343.373 666.083 344.476 666.083 346.221C666.083 347.979 665.186 349.077 663.982 349.077C662.751 349.077 661.859 347.979 661.864 346.221ZM662.945 346.221C662.94 347.412 663.358 348.062 663.982 348.058C664.588 348.062 664.997 347.412 665.001 346.221C664.997 345.034 664.588 344.384 663.982 344.384C663.358 344.384 662.94 345.034 662.945 346.221ZM676.726 348.928V349.842H669.405V348.928H676.726ZM670.178 347.592V343.32H671.303V344.647H674.792V343.32H675.909V347.592H670.178ZM671.303 346.713H674.792V345.518H671.303V346.713Z" fill="black"/>
<circle cx="319" cy="346" r="20.25" fill="#CCCCCC" stroke="black" stroke-width="1.5"/>
<path d="M312.689 340.426V346.438H311.189V340.426H312.689ZM303.725 345.078C305.512 344.539 306.291 343.174 306.291 341.844V340.812H307.85V341.844C307.838 343.139 308.623 344.381 310.346 344.914L309.619 346.051C308.4 345.688 307.557 344.949 307.076 343.994C306.59 345.031 305.723 345.852 304.451 346.25L303.725 345.078ZM305.541 350.961V346.93H312.689V350.961H305.541ZM307.018 349.766H311.225V348.113H307.018V349.766ZM323.857 345.664V346.871H314.131V345.664H323.857ZM314.541 344.105C316.814 343.971 317.898 343.285 318.109 342.547H315.068V341.363H318.244V340.449H319.721V341.363H322.92V342.547H319.85C320.055 343.285 321.145 343.971 323.424 344.105L322.979 345.242C321.01 345.102 319.65 344.533 318.982 343.672C318.309 344.533 316.949 345.102 314.998 345.242L314.541 344.105ZM315.244 349.262C315.244 348.096 316.633 347.451 318.982 347.457C321.32 347.451 322.686 348.096 322.697 349.262C322.686 350.439 321.32 351.084 318.982 351.078C316.633 351.084 315.244 350.439 315.244 349.262ZM316.768 349.262C316.762 349.754 317.488 349.977 318.982 349.977C320.441 349.977 321.191 349.754 321.197 349.262C321.191 348.781 320.441 348.559 318.982 348.559C317.488 348.559 316.762 348.781 316.768 349.262ZM333.033 340.414V344.75H334.428V345.992H333.033V351.078H331.521V340.414H333.033ZM324.373 348.066C325.152 348.066 326.061 348.066 327.01 348.043V347.129C325.879 346.906 325.141 346.186 325.146 345.195C325.141 344.006 326.219 343.191 327.771 343.191C329.295 343.191 330.385 344.006 330.396 345.195C330.385 346.186 329.635 346.912 328.51 347.129V347.99C329.354 347.943 330.203 347.873 330.994 347.762L331.088 348.852C328.82 349.273 326.371 349.291 324.572 349.285L324.373 348.066ZM324.584 342.77V341.598H327.01V340.473H328.51V341.598H330.912V342.77H324.584ZM326.564 345.195C326.559 345.758 327.039 346.062 327.771 346.062C328.48 346.062 328.955 345.758 328.955 345.195C328.955 344.645 328.48 344.334 327.771 344.328C327.039 344.334 326.559 344.645 326.564 345.195Z" fill="black"/>
<circle cx="241" cy="346" r="20.25" fill="#CCCCCC" stroke="black" stroke-width="1.5"/>
<path d="M241.172 345.406V346.578H231.445V345.406H241.172ZM232.418 342.734C232.418 341.445 233.947 340.643 236.309 340.637C238.652 340.643 240.182 341.445 240.188 342.734C240.182 344.035 238.652 344.82 236.309 344.82C233.947 344.82 232.418 344.035 232.418 342.734ZM232.559 349.133C232.559 347.873 233.959 347.17 236.297 347.176C238.6 347.17 240 347.873 240.012 349.133C240 350.393 238.6 351.096 236.297 351.09C233.959 351.096 232.559 350.393 232.559 349.133ZM233.977 342.734C233.965 343.355 234.814 343.66 236.309 343.66C237.779 343.66 238.641 343.355 238.641 342.734C238.641 342.107 237.779 341.809 236.309 341.809C234.814 341.809 233.965 342.107 233.977 342.734ZM234.082 349.133C234.076 349.684 234.82 349.947 236.297 349.953C237.744 349.947 238.506 349.684 238.512 349.133C238.506 348.57 237.744 348.307 236.297 348.301C234.82 348.307 234.076 348.57 234.082 349.133ZM245.965 342.828C245.959 344.785 246.85 346.748 248.66 347.516L247.781 348.711C246.562 348.16 245.719 347.094 245.232 345.775C244.752 347.217 243.879 348.377 242.578 348.969L241.676 347.727C243.539 346.941 244.447 344.896 244.453 342.828V341.234H245.965V342.828ZM249.234 351.102V340.414H250.746V351.102H249.234Z" fill="black"/>
<circle cx="153" cy="346" r="20.25" fill="#CCCCCC" stroke="black" stroke-width="1.5"/>
<path d="M146.607 341.34V342.383C146.602 343.684 146.602 345.143 146.209 347.293L144.744 347.164C145.09 345.207 145.102 343.76 145.107 342.523H138.721V341.34H146.607ZM137.76 349.777V348.559H139.834V345.207H141.322V348.559H142.494V345.207H143.971V348.559H147.486V349.777H137.76ZM151.986 343.754C151.986 345.271 152.771 346.982 154.471 347.785L153.639 348.91C152.496 348.395 151.705 347.393 151.26 346.203C150.797 347.486 149.959 348.564 148.752 349.098L147.932 347.938C149.672 347.17 150.498 345.354 150.51 343.754V343.344H148.307V342.148H150.498V340.648H151.998V342.148H154.166V343.344H151.986V343.754ZM155.045 351.078V340.414H156.545V344.551H158.115V345.805H156.545V351.078H155.045ZM168.264 348.664V349.895H158.502V348.664H162.615V347.059H159.627V343.473H165.662V342.301H159.615V341.105H167.139V344.645H161.127V345.84H167.385V347.059H164.104V348.664H168.264Z" fill="black"/>
<circle cx="65" cy="266" r="20.25" fill="#CCCCCC" stroke="black" stroke-width="1.5"/>
<path d="M55.5254 261.803V264.809H54.4004V262.699H49.7949V261.803H55.5254ZM48.4941 260.423C49.417 259.856 49.6631 258.788 49.6631 257.83V257.268H50.7178V257.83C50.7178 258.533 50.8145 259.346 51.2759 259.979C51.7241 259.346 51.812 258.538 51.8076 257.83V257.268H52.8623V257.83C52.8623 258.823 53.1172 259.869 54.0488 260.423L53.4336 261.223C52.8887 260.906 52.5503 260.401 52.3438 259.808C52.1504 260.423 51.8208 260.968 51.2715 261.319C50.7134 260.959 50.3794 260.401 50.1904 259.772C49.9839 260.375 49.6455 260.893 49.1006 261.223L48.4941 260.423ZM53.4336 259.324V258.428H54.4004V256.811H55.5254V261.451H54.4004V259.324H53.4336ZM59.5244 258.99C59.52 260.282 60.188 261.667 61.5283 262.225L60.9219 263.104C59.9814 262.704 59.3311 261.908 58.9707 260.941C58.6104 261.992 57.9468 262.871 57.002 263.306L56.3604 262.418C57.6875 261.825 58.373 260.344 58.373 258.99V258.498H56.6768V257.584H61.1943V258.498H59.5244V258.99ZM61.9854 264.809V256.811H63.1191V264.809H61.9854ZM68.4805 257.197C69.7109 257.193 70.625 257.975 70.625 259.061C70.625 260.155 69.7109 260.933 68.4805 260.933C67.2588 260.933 66.3228 260.155 66.3271 259.061C66.3228 257.975 67.2588 257.193 68.4805 257.197ZM66.9951 264.598V261.53H68.085V263.684C68.5288 263.653 68.9463 263.587 69.3594 263.455L69.5176 264.325C68.8452 264.567 68.1992 264.598 67.4346 264.598H66.9951ZM67.4258 259.061C67.417 259.649 67.874 260.014 68.4805 260.019C69.0869 260.014 69.5352 259.649 69.5352 259.061C69.5352 258.476 69.0869 258.116 68.4805 258.12C67.874 258.116 67.417 258.476 67.4258 259.061ZM69.2451 262.365V261.539H70.7217V260.977H71.8115V261.539H73.2705V262.365H69.2451ZM69.7109 263.684C69.7021 262.994 70.3306 262.55 71.249 262.55C72.1631 262.55 72.8003 262.994 72.8047 263.684C72.8003 264.378 72.1631 264.813 71.249 264.809C70.3262 264.813 69.7021 264.378 69.7109 263.684ZM70.7041 263.684C70.6997 263.925 70.9326 264.044 71.249 264.044C71.5698 264.044 71.7983 263.925 71.8027 263.684C71.7983 263.455 71.5698 263.328 71.249 263.323C70.9326 263.328 70.6997 263.455 70.7041 263.684ZM71.4951 260.757V256.811H72.6201V258.472H73.7012V259.395H72.6201V260.757H71.4951ZM80.9873 256.811V264.809H79.9326V256.811H80.9873ZM73.9561 262.356C75.5732 261.398 76.2852 260.234 76.439 258.665H74.3955V257.76H77.5508C77.5508 258.524 77.4673 259.236 77.2739 259.896H78.2363V256.986H79.2822V264.457H78.2363V260.783H76.9268C76.4697 261.697 75.7271 262.488 74.5889 263.147L73.9561 262.356ZM50.7969 268.373C52.0186 268.373 52.9019 269.476 52.9062 271.221C52.9019 272.979 52.0186 274.077 50.7969 274.077C49.5708 274.077 48.6831 272.979 48.6875 271.221C48.6831 269.476 49.5708 268.373 50.7969 268.373ZM49.7686 271.221C49.7686 272.412 50.186 273.062 50.7969 273.058C51.4209 273.062 51.8296 272.412 51.834 271.221C51.8296 270.034 51.4209 269.384 50.7969 269.384C50.186 269.384 49.7686 270.034 49.7686 271.221ZM53.8291 275.809V267.811H54.9541V270.825H56.1318V271.757H54.9541V275.809H53.8291ZM63.7168 272.223V273.119H60.6055V275.809H59.498V273.119H56.4219V272.223H63.7168ZM56.7822 270.878C58.3994 270.68 59.2959 269.898 59.4146 269.111H57.0811V268.232H63.0664V269.111H60.7329C60.8472 269.898 61.7305 270.68 63.374 270.878L62.9697 271.757C61.5635 271.568 60.5571 270.97 60.0737 270.148C59.5859 270.97 58.5884 271.568 57.1953 271.757L56.7822 270.878ZM69.9219 268.224C71.6401 268.224 72.9321 269.094 72.9365 270.412C72.9321 271.621 71.9126 272.429 70.4756 272.587V273.954H73.5957V274.877H66.2744V273.954H69.3594V272.587C67.9312 272.425 66.916 271.616 66.916 270.412C66.916 269.094 68.2036 268.224 69.9219 268.224ZM68.0234 270.412C68.0234 271.256 68.8013 271.726 69.9219 271.73C71.0469 271.726 71.8247 271.256 71.8291 270.412C71.8247 269.612 71.0469 269.116 69.9219 269.12C68.8013 269.116 68.0234 269.612 68.0234 270.412ZM77.3135 268.584V271.669H75.3535V273.102C76.1138 273.093 76.8345 273.062 77.6562 272.935L77.7354 273.831C76.6895 274.007 75.8237 274.033 74.835 274.033H74.2812V270.772H76.2324V269.489H74.2725V268.584H77.3135ZM78.1045 275.422V267.942H79.1328V270.834H79.9062V267.811H80.9697V275.809H79.9062V271.739H79.1328V275.422H78.1045Z" fill="black"/>
<circle cx="21" cy="328" r="20.25" fill="#CCCCCC" stroke="black" stroke-width="1.5"/>
<path d="M9.604 323V316.637H10.9224V319.273H13.6821V316.637H15.0093V323H13.6821V320.363H10.9224V323H9.604ZM18.1997 323.097C16.7583 323.092 15.8574 322.104 15.8618 320.627C15.8574 319.155 16.7583 318.166 18.1997 318.166C19.6455 318.166 20.542 319.155 20.5464 320.627C20.542 322.104 19.6455 323.092 18.1997 323.097ZM17.1802 320.627C17.1802 321.462 17.5273 322.082 18.2085 322.086C18.8721 322.082 19.2236 321.462 19.2192 320.627C19.2236 319.788 18.8721 319.159 18.2085 319.159C17.5273 319.159 17.1802 319.788 17.1802 320.627ZM21.3638 323V318.228H22.603V319.062H22.6558C22.8579 318.504 23.3413 318.166 23.9829 318.166C24.6377 318.166 25.1255 318.513 25.2837 319.062H25.3276C25.5254 318.522 26.0703 318.166 26.769 318.166C27.6523 318.166 28.272 318.75 28.272 319.792V323H26.9712V320.047C26.9756 319.502 26.6504 319.238 26.2241 319.238C25.7363 319.238 25.4463 319.577 25.4507 320.082V323H24.1851V320.012C24.1895 319.542 23.8906 319.238 23.4468 319.238C23.0029 319.238 22.6602 319.594 22.6646 320.135V323H21.3638ZM31.436 323.097C29.9727 323.092 29.0762 322.147 29.0806 320.636C29.0762 319.164 29.9858 318.166 31.3833 318.166C32.6357 318.166 33.6245 318.957 33.6245 320.583V320.952H30.3638C30.3638 321.673 30.79 322.117 31.4624 322.121C31.9062 322.117 32.2227 321.923 32.3501 321.638H33.5894C33.4048 322.521 32.6138 323.092 31.436 323.097ZM30.3638 320.135H32.394C32.3896 319.555 31.9897 319.137 31.4097 319.142C30.812 319.137 30.3901 319.585 30.3638 320.135ZM12.1968 327.456C12.144 326.951 11.7441 326.656 11.0981 326.656C10.4302 326.656 10.0566 326.964 10.0522 327.386C10.0479 327.847 10.5225 328.054 11.0718 328.177L11.6431 328.317C12.7329 328.568 13.5459 329.122 13.5503 330.181C13.5459 331.345 12.6406 332.092 11.0894 332.088C9.55127 332.092 8.57129 331.38 8.53174 330.014H9.81494C9.85889 330.655 10.3687 330.98 11.0718 330.98C11.7661 330.98 12.2144 330.655 12.2144 330.181C12.2144 329.746 11.8188 329.543 11.1245 329.372L10.4302 329.205C9.35791 328.941 8.69873 328.405 8.69873 327.474C8.69434 326.318 9.71387 325.549 11.1069 325.549C12.5176 325.549 13.4448 326.331 13.4624 327.456H12.1968ZM15.3257 332L14.0249 327.228H15.3433L16.0903 330.453H16.1343L16.9165 327.228H18.2085L18.9995 330.436H19.0435L19.7817 327.228H21.1001L19.7905 332H18.4194L17.5933 328.968H17.5317L16.7056 332H15.3257ZM23.7983 332.097C22.335 332.092 21.4385 331.147 21.4429 329.636C21.4385 328.164 22.3481 327.166 23.7456 327.166C24.998 327.166 25.9868 327.957 25.9868 329.583V329.952H22.7261C22.7261 330.673 23.1523 331.117 23.8247 331.121C24.2686 331.117 24.585 330.923 24.7124 330.638H25.9517C25.7671 331.521 24.9761 332.092 23.7983 332.097ZM22.7261 329.135H24.7563C24.752 328.555 24.3521 328.137 23.772 328.142C23.1743 328.137 22.7524 328.585 22.7261 329.135ZM28.9663 332.097C27.5029 332.092 26.6064 331.147 26.6108 329.636C26.6064 328.164 27.5161 327.166 28.9136 327.166C30.166 327.166 31.1548 327.957 31.1548 329.583V329.952H27.894C27.894 330.673 28.3203 331.117 28.9927 331.121C29.4365 331.117 29.7529 330.923 29.8804 330.638H31.1196C30.9351 331.521 30.144 332.092 28.9663 332.097ZM27.894 329.135H29.9243C29.9199 328.555 29.52 328.137 28.9399 328.142C28.3423 328.137 27.9204 328.585 27.894 329.135ZM34.4858 327.228V328.203H33.5894V330.532C33.585 330.915 33.7739 331.007 34.0376 331.016C34.1694 331.016 34.3979 331.002 34.5562 330.989V332.018C34.4155 332.04 34.1826 332.066 33.8618 332.062C32.9214 332.066 32.2798 331.644 32.2886 330.717V328.203H31.6294V327.228H32.2886V326.085H33.5894V327.228H34.4858ZM9.604 341V334.637H10.9224V337.273H13.6821V334.637H15.0093V341H13.6821V338.363H10.9224V341H9.604ZM18.1997 341.097C16.7583 341.092 15.8574 340.104 15.8618 338.627C15.8574 337.155 16.7583 336.166 18.1997 336.166C19.6455 336.166 20.542 337.155 20.5464 338.627C20.542 340.104 19.6455 341.092 18.1997 341.097ZM17.1802 338.627C17.1802 339.462 17.5273 340.082 18.2085 340.086C18.8721 340.082 19.2236 339.462 19.2192 338.627C19.2236 337.788 18.8721 337.159 18.2085 337.159C17.5273 337.159 17.1802 337.788 17.1802 338.627ZM21.3638 341V336.228H22.603V337.062H22.6558C22.8579 336.504 23.3413 336.166 23.9829 336.166C24.6377 336.166 25.1255 336.513 25.2837 337.062H25.3276C25.5254 336.522 26.0703 336.166 26.769 336.166C27.6523 336.166 28.272 336.75 28.272 337.792V341H26.9712V338.047C26.9756 337.502 26.6504 337.238 26.2241 337.238C25.7363 337.238 25.4463 337.577 25.4507 338.082V341H24.1851V338.012C24.1895 337.542 23.8906 337.238 23.4468 337.238C23.0029 337.238 22.6602 337.594 22.6646 338.135V341H21.3638ZM31.436 341.097C29.9727 341.092 29.0762 340.147 29.0806 338.636C29.0762 337.164 29.9858 336.166 31.3833 336.166C32.6357 336.166 33.6245 336.957 33.6245 338.583V338.952H30.3638C30.3638 339.673 30.79 340.117 31.4624 340.121C31.9062 340.117 32.2227 339.923 32.3501 339.638H33.5894C33.4048 340.521 32.6138 341.092 31.436 341.097ZM30.3638 338.135H32.394C32.3896 337.555 31.9897 337.137 31.4097 337.142C30.812 337.137 30.3901 337.585 30.3638 338.135Z" fill="black"/>
<circle cx="153" cy="449" r="20.25" fill="#CCCCCC" stroke="black" stroke-width="1.5"/>
<path d="M149.539 436.824V438.02H147.418C147.453 439.086 148.227 440.205 149.855 440.668L149.164 441.852C147.969 441.506 147.143 440.797 146.668 439.912C146.182 440.896 145.314 441.705 144.078 442.074L143.352 440.914C145.021 440.375 145.859 439.15 145.918 438.02H143.762V436.824H149.539ZM145.332 443.434V442.25H152.434V445.133H146.844V445.812H152.75V446.973H145.344V444.043H150.945V443.434H145.332ZM149.27 439.789V438.605H150.945V436.414H152.434V441.84H150.945V439.789H149.27ZM163.039 436.414V447.078H161.621V441.723H160.59V446.562H159.219V436.59H160.59V440.527H161.621V436.414H163.039ZM154.121 444.664V437.645H158.094V438.852H155.621V443.41C156.652 443.393 157.566 443.334 158.598 443.152L158.703 444.371C157.402 444.617 156.266 444.658 154.859 444.664H154.121ZM148.309 450.613C150.682 450.607 152.182 451.398 152.188 452.699C152.182 453.994 150.682 454.768 148.309 454.762C145.947 454.768 144.418 453.994 144.418 452.699C144.418 451.398 145.947 450.607 148.309 450.613ZM143.445 456.578V455.383H153.172V456.578H143.445ZM144.57 460.961V457.328H152.012V460.961H144.57ZM145.977 452.699C145.965 453.297 146.814 453.602 148.309 453.602C149.779 453.602 150.641 453.297 150.641 452.699C150.641 452.084 149.779 451.773 148.309 451.773C146.814 451.773 145.965 452.084 145.977 452.699ZM146.047 459.766H150.547V458.512H146.047V459.766ZM156.816 451C158.469 450.994 159.723 452.084 159.723 453.59C159.723 455.131 158.469 456.209 156.816 456.203C155.146 456.209 153.881 455.131 153.887 453.59C153.881 452.084 155.146 450.994 156.816 451ZM155.094 458.301V457.094H162.277V461.09H160.777V458.301H155.094ZM155.363 453.59C155.352 454.451 155.979 454.943 156.816 454.938C157.637 454.943 158.264 454.451 158.27 453.59C158.264 452.758 157.637 452.271 156.816 452.277C155.979 452.271 155.352 452.758 155.363 453.59ZM160.777 456.648V450.414H162.277V452.922H163.719V454.141H162.277V456.648H160.777Z" fill="black"/>
<circle cx="319" cy="449" r="20.25" fill="#CCCCCC" stroke="black" stroke-width="1.5"/>
<path d="M310.672 441.99C310.668 443.282 311.336 444.667 312.676 445.225L312.07 446.104C311.129 445.704 310.479 444.908 310.119 443.941C309.758 444.992 309.095 445.871 308.15 446.306L307.508 445.418C308.835 444.825 309.521 443.344 309.521 441.99V441.498H307.825V440.584H312.342V441.498H310.672V441.99ZM313.133 447.809V439.811H314.267V447.809H313.133ZM319.303 440.259V442.711H316.754V443.476C318.073 443.467 318.969 443.423 319.989 443.238L320.112 444.135C318.965 444.341 317.937 444.394 316.315 444.39H315.638V441.858H318.213V441.155H315.629V440.259H319.303ZM316.306 445.937V445.04H321.694V447.8H320.569V445.937H316.306ZM320.569 444.671V439.819H321.694V441.727H322.775V442.649H321.694V444.671H320.569ZM326.774 439.925C328.615 439.925 329.679 440.408 329.683 441.287C329.679 442.179 328.615 442.658 326.774 442.658C324.928 442.658 323.856 442.179 323.856 441.287C323.856 440.408 324.928 439.925 326.774 439.925ZM323.126 443.924V443.036H330.421V443.924H323.126ZM323.97 445.207V444.39H329.534V446.429H325.078V446.912H329.745V447.756H323.979V445.646H328.426V445.207H323.97ZM325.034 441.287C325.029 441.678 325.601 441.832 326.774 441.832C327.956 441.832 328.523 441.678 328.523 441.287C328.523 440.931 327.956 440.742 326.774 440.742C325.601 440.742 325.029 440.931 325.034 441.287ZM311.002 456.954V457.877H303.681V456.954H306.766V455.319H304.454V451.399H310.185V455.319H307.882V456.954H311.002ZM305.562 454.44H309.077V452.296H305.562V454.44ZM317.805 450.811V452.375H318.886V453.298H317.805V454.985H316.68V450.811H317.805ZM311.74 452.032V451.18H315.414V453.351H312.865V453.944C314.197 453.935 315.08 453.887 316.117 453.737L316.223 454.581C315.076 454.774 314.047 454.81 312.426 454.81H311.749V452.56H314.324V452.032H311.74ZM312.549 456.119V455.267H317.805V457.376H313.674V457.895H318.086V458.756H312.558V456.585H316.688V456.119H312.549ZM325.979 450.819V456.128H324.862V453.843H323.447V452.929H324.862V450.819H325.979ZM319.325 454.897C321.14 454.361 322.01 453.474 322.177 452.313H319.756V451.426H323.386C323.386 453.588 322.239 455.021 319.809 455.776L319.325 454.897ZM320.169 457.895C321.87 457.648 322.709 456.712 322.718 455.803V455.521H323.825V455.803C323.825 456.712 324.669 457.626 326.356 457.886L325.908 458.773C324.651 458.567 323.746 458.004 323.267 457.227C322.779 458.004 321.865 458.571 320.608 458.782L320.169 457.895ZM333.326 450.811V453.878H334.46V454.801H333.326V458.791H332.201V450.811H333.326ZM326.928 456.55C328.822 455.601 329.841 454.326 330.052 452.542H327.385V451.628H331.19C331.182 454.019 330.25 456.088 327.561 457.411L326.928 456.55Z" fill="black"/>
<circle cx="241" cy="449" r="20.25" fill="#CCCCCC" stroke="black" stroke-width="1.5"/>
<path d="M225.004 447V440.637H227.535C228.937 440.637 229.649 441.313 229.645 442.271C229.649 443.019 229.157 443.489 228.502 443.634V443.695C229.218 443.73 229.895 444.302 229.899 445.242C229.895 446.253 229.139 447 227.702 447H225.004ZM226.322 445.91H227.438C228.203 445.915 228.533 445.598 228.528 445.119C228.533 444.583 228.124 444.205 227.474 444.205H226.322V445.91ZM226.322 443.3H227.342C227.896 443.304 228.313 442.992 228.309 442.482C228.313 442.021 227.97 441.709 227.368 441.709H226.322V443.3ZM230.708 447V442.228H231.965V443.054H232.018C232.189 442.469 232.633 442.157 233.169 442.157C233.301 442.157 233.468 442.175 233.582 442.201V443.361C233.459 443.322 233.208 443.291 233.028 443.291C232.439 443.291 232.004 443.7 232.009 444.284V447H230.708ZM234.215 447V442.228H235.516V447H234.215ZM234.153 440.944C234.153 440.575 234.474 440.281 234.865 440.276C235.252 440.281 235.573 440.575 235.568 440.944C235.573 441.305 235.252 441.604 234.865 441.604C234.474 441.604 234.153 441.305 234.153 440.944ZM237.827 444.24V447H236.526V442.228H237.766V443.062H237.818C238.034 442.513 238.543 442.166 239.251 442.166C240.249 442.166 240.899 442.847 240.895 443.959V447H239.603V444.188C239.598 443.599 239.282 443.247 238.741 443.247C238.201 443.247 237.827 443.612 237.827 444.24ZM244.05 448.89C242.731 448.89 241.918 448.296 241.844 447.396H243.127C243.197 447.778 243.558 447.949 244.076 447.949C244.678 447.949 245.083 447.69 245.087 447.026V446.156H245.025C244.854 446.543 244.432 446.934 243.663 446.93C242.586 446.934 241.721 446.174 241.721 444.583C241.721 442.97 242.608 442.166 243.663 442.166C244.463 442.166 244.85 442.641 245.025 443.027H245.078V442.228H246.37V447.053C246.366 448.27 245.408 448.89 244.05 448.89ZM243.057 444.601C243.052 445.427 243.408 445.95 244.067 445.954C244.718 445.95 245.087 445.449 245.087 444.601C245.087 443.752 244.722 443.203 244.067 443.203C243.404 443.203 243.052 443.779 243.057 444.601ZM251.969 442.228V443.203H251.072V445.532C251.068 445.915 251.257 446.007 251.521 446.016C251.652 446.016 251.881 446.002 252.039 445.989V447.018C251.898 447.04 251.666 447.066 251.345 447.062C250.404 447.066 249.763 446.644 249.771 445.717V443.203H249.112V442.228H249.771V441.085H251.072V442.228H251.969ZM254.878 447.097C253.437 447.092 252.536 446.104 252.54 444.627C252.536 443.155 253.437 442.166 254.878 442.166C256.324 442.166 257.22 443.155 257.225 444.627C257.22 446.104 256.324 447.092 254.878 447.097ZM253.858 444.627C253.858 445.462 254.206 446.082 254.887 446.086C255.55 446.082 255.902 445.462 255.897 444.627C255.902 443.788 255.55 443.159 254.887 443.159C254.206 443.159 253.858 443.788 253.858 444.627ZM228.458 458V451.637H229.776V456.91H232.519V458H228.458ZM234.689 451.637V458H233.371V451.637H234.689ZM239.989 453.685C239.809 453.087 239.33 452.722 238.636 452.718C237.651 452.722 236.983 453.474 236.983 454.81C236.983 456.154 237.629 456.915 238.645 456.919C239.554 456.915 240.095 456.4 240.112 455.601H238.732V454.607H241.387V455.398C241.387 457.068 240.24 458.088 238.636 458.088C236.852 458.088 235.639 456.84 235.639 454.827C235.639 452.762 236.931 451.549 238.609 451.549C240.046 451.549 241.149 452.432 241.325 453.685H239.989ZM242.354 458V451.637H243.672V454.273H246.432V451.637H247.759V458H246.432V455.363H243.672V458H242.354ZM248.585 452.727V451.637H253.797V452.727H251.846V458H250.536V452.727H248.585Z" fill="black"/>
<circle cx="805" cy="449" r="20.25" fill="#CCCCCC" stroke="black" stroke-width="1.5"/>
<path d="M797.501 441V440.07L799.892 436.344H801.369V440.055H802.087V441H801.369V442H800.251V441H797.501ZM798.689 440.055H800.267V437.633H800.212L798.689 440.008V440.055ZM803.97 436.344L805.126 438.289H805.166L806.33 436.344H807.658L805.931 439.172L807.697 442H806.337L805.166 440.055H805.126L803.955 442H802.603L804.376 439.172L802.634 436.344H803.97ZM809.455 436.344L810.611 438.289H810.65L811.814 436.344H813.142L811.416 439.172L813.181 442H811.822L810.65 440.055H810.611L809.439 442H808.087L809.861 439.172L808.119 436.344H809.455ZM803.783 446.344V452H802.767L800.283 448.406H800.236V452H799.064V446.344H800.095L802.564 449.938H802.619V446.344H803.783ZM806.619 452.086C805.337 452.082 804.537 451.203 804.541 449.891C804.537 448.582 805.337 447.703 806.619 447.703C807.904 447.703 808.701 448.582 808.705 449.891C808.701 451.203 807.904 452.082 806.619 452.086ZM805.712 449.891C805.712 450.633 806.021 451.184 806.626 451.188C807.216 451.184 807.529 450.633 807.525 449.891C807.529 449.145 807.216 448.586 806.626 448.586C806.021 448.586 805.712 449.145 805.712 449.891ZM811.666 447.758V448.625H810.869V450.695C810.865 451.035 811.033 451.117 811.267 451.125C811.384 451.125 811.587 451.113 811.728 451.102V452.016C811.603 452.035 811.396 452.059 811.111 452.055C810.275 452.059 809.705 451.684 809.712 450.859V448.625H809.126V447.758H809.712V446.742H810.869V447.758H811.666ZM794.064 462V456.344H797.791V457.312H795.236V458.688H797.548V459.656H795.236V462H794.064ZM800.134 462.086C798.853 462.082 798.052 461.203 798.056 459.891C798.052 458.582 798.853 457.703 800.134 457.703C801.419 457.703 802.216 458.582 802.22 459.891C802.216 461.203 801.419 462.082 800.134 462.086ZM799.228 459.891C799.228 460.633 799.537 461.184 800.142 461.188C800.732 461.184 801.044 460.633 801.041 459.891C801.044 459.145 800.732 458.586 800.142 458.586C799.537 458.586 799.228 459.145 799.228 459.891ZM805.666 460.195V457.758H806.822V462H805.712V461.234H805.666C805.474 461.727 805.017 462.055 804.376 462.055C803.529 462.055 802.947 461.453 802.947 460.461V457.758H804.103V460.258C804.103 460.762 804.392 461.074 804.845 461.078C805.267 461.074 805.666 460.773 805.666 460.195ZM808.876 459.547V462H807.72V457.758H808.822V458.5H808.869C809.06 458.012 809.513 457.703 810.142 457.703C811.029 457.703 811.607 458.309 811.603 459.297V462H810.455V459.5C810.451 458.977 810.169 458.664 809.689 458.664C809.208 458.664 808.876 458.988 808.876 459.547ZM814.064 462.07C813.095 462.07 812.337 461.301 812.337 459.883C812.337 458.43 813.126 457.703 814.064 457.703C814.775 457.703 815.115 458.125 815.267 458.469H815.306V456.344H816.462V462H815.322V461.32H815.267C815.107 461.672 814.755 462.07 814.064 462.07ZM813.525 459.875C813.521 460.625 813.837 461.145 814.423 461.148C815.001 461.145 815.33 460.641 815.33 459.875C815.33 459.113 815.005 458.625 814.423 458.625C813.833 458.625 813.521 459.137 813.525 459.875Z" fill="black"/>
<circle cx="849" cy="449" r="20.25" fill="#CCCCCC" stroke="black" stroke-width="1.5"/>
<path d="M844.024 439.012V443.572H842.774V439.012H844.024ZM836.709 442.42C837.012 442.42 837.334 442.415 837.666 442.41V440.506H836.944V439.559H841.778V440.506H841.045V442.278C841.412 442.249 841.773 442.215 842.12 442.176L842.178 443.064C840.411 443.348 838.389 443.396 836.846 443.396L836.709 442.42ZM837.979 444.891V443.924H844.024V446.297H839.229V446.854H844.268V447.84H837.999V445.408H842.793V444.891H837.979ZM838.858 442.386C839.185 442.376 839.512 442.366 839.844 442.352V440.506H838.858V442.386ZM852.696 439.021V445.516H851.456V443.406H849.424C848.995 443.86 848.379 444.139 847.686 444.139C846.338 444.139 845.313 443.162 845.323 441.844C845.313 440.506 846.338 439.534 847.686 439.529C848.374 439.534 848.99 439.808 849.419 440.262H851.456V439.021H852.696ZM846.504 441.844C846.499 442.586 846.993 443.035 847.686 443.035C848.34 443.035 848.843 442.586 848.848 441.844C848.843 441.092 848.34 440.643 847.686 440.643C846.993 440.643 846.499 441.092 846.504 441.844ZM846.797 447.742V444.861H848.047V446.746H852.911V447.742H846.797ZM849.957 441.258C850.005 441.443 850.03 441.639 850.03 441.844C850.03 442.039 850.005 442.229 849.961 442.41H851.456V441.258H849.957ZM858.848 439.9V440.613C858.838 441.448 858.838 442.542 858.604 444.021L857.374 443.924C857.579 442.635 857.598 441.683 857.608 440.896H854.239V439.9H858.848ZM853.77 445.086C854.268 445.086 854.825 445.081 855.401 445.066V442.449H856.631V445.027C857.505 444.993 858.389 444.93 859.209 444.822L859.288 445.75C857.457 446.058 855.445 446.092 853.887 446.082L853.77 445.086ZM859.629 447.898V439.012H860.889V442.586H862.1V443.621H860.889V447.898H859.629ZM849.009 455.982V456.998H845.533V459.908H844.302V456.998H840.874V455.982H849.009ZM841.695 453.326C841.69 452.091 843.008 451.31 844.917 451.305C846.827 451.31 848.16 452.091 848.16 453.326C848.16 454.532 846.827 455.309 844.917 455.309C843.008 455.309 841.69 454.532 841.695 453.326ZM842.974 453.326C842.969 453.961 843.726 454.317 844.917 454.322C846.119 454.317 846.871 453.961 846.871 453.326C846.871 452.667 846.119 452.306 844.917 452.301C843.726 452.306 842.969 452.667 842.974 453.326ZM857.017 451.021V457.516H855.777V455.406H853.746C853.316 455.86 852.701 456.139 852.007 456.139C850.66 456.139 849.634 455.162 849.644 453.844C849.634 452.506 850.66 451.534 852.007 451.529C852.696 451.534 853.311 451.808 853.741 452.262H855.777V451.021H857.017ZM850.826 453.844C850.821 454.586 851.314 455.035 852.007 455.035C852.662 455.035 853.165 454.586 853.169 453.844C853.165 453.092 852.662 452.643 852.007 452.643C851.314 452.643 850.821 453.092 850.826 453.844ZM851.119 459.742V456.861H852.369V458.746H857.232V459.742H851.119ZM854.278 453.258C854.327 453.443 854.351 453.639 854.351 453.844C854.351 454.039 854.327 454.229 854.283 454.41H855.777V453.258H854.278Z" fill="black"/>
<circle cx="893" cy="449" r="20.25" fill="#CCCCCC" stroke="black" stroke-width="1.5"/>
<path d="M884.777 441.691C884.782 442.592 885.366 443.511 886.667 443.906L886.131 444.776C885.234 444.517 884.602 443.968 884.241 443.273C883.885 444.025 883.252 444.618 882.325 444.908L881.78 444.029C883.081 443.638 883.661 442.667 883.661 441.691V441.63H882.053V440.751H883.661V439.863H884.795V440.751H886.395V441.63H884.777V441.691ZM883.266 447.668V445.242H884.391V446.771H888.768V447.668H883.266ZM886.131 443.054V442.148H887.458V439.819H888.574V445.752H887.458V443.054H886.131ZM896.062 440.162V440.786C896.067 441.375 896.067 442.052 895.9 442.913H896.933V443.81H893.821V444.961H896.071V447.809H894.946V445.84H890.35V444.961H892.696V443.81H889.611V442.913H894.766C894.916 442.162 894.937 441.577 894.946 441.05H890.508V440.162H896.062ZM901.037 439.925C902.878 439.925 903.942 440.408 903.946 441.287C903.942 442.179 902.878 442.658 901.037 442.658C899.191 442.658 898.119 442.179 898.119 441.287C898.119 440.408 899.191 439.925 901.037 439.925ZM897.39 443.924V443.036H904.685V443.924H897.39ZM898.233 445.207V444.39H903.797V446.429H899.341V446.912H904.008V447.756H898.242V445.646H902.689V445.207H898.233ZM899.297 441.287C899.292 441.678 899.864 441.832 901.037 441.832C902.219 441.832 902.786 441.678 902.786 441.287C902.786 440.931 902.219 440.742 901.037 440.742C899.864 440.742 899.292 440.931 899.297 441.287ZM883.556 452.99C883.551 454.282 884.219 455.667 885.56 456.225L884.953 457.104C884.013 456.704 883.362 455.908 883.002 454.941C882.642 455.992 881.978 456.871 881.033 457.306L880.392 456.418C881.719 455.825 882.404 454.344 882.404 452.99V452.498H880.708V451.584H885.226V452.498H883.556V452.99ZM886.017 458.809V450.811H887.15V458.809H886.017ZM892.336 451.575C892.336 452.037 892.31 452.485 892.252 452.92H893.856V450.802H894.973V458.809H893.856V455.996H891.967V455.108H893.856V453.834H892.072C891.668 455.311 890.736 456.581 888.785 457.596L888.17 456.752C889.436 456.088 890.227 455.346 890.688 454.458L888.363 454.669L888.214 453.72L891.035 453.553C891.127 453.214 891.185 452.854 891.215 452.472H888.645V451.575H892.336ZM902.32 450.811V453.834H903.498V454.757H902.32V458.826H901.213V450.811H902.32ZM896.335 452.384V451.479H900.035V454.581H897.46V456.031C898.624 456.027 899.587 455.974 900.65 455.794L900.747 456.69C899.525 456.915 898.427 456.963 897.02 456.963H896.344V453.693H898.919V452.384H896.335ZM905.607 451.637L905.493 456.093H904.368L904.254 451.637H905.607ZM904.201 457.341C904.192 456.937 904.526 456.607 904.939 456.611C905.331 456.607 905.669 456.937 905.669 457.341C905.669 457.75 905.331 458.079 904.939 458.079C904.526 458.079 904.192 457.75 904.201 457.341Z" fill="black"/>
<circle cx="937" cy="449" r="20.25" fill="#CCCCCC" stroke="black" stroke-width="1.5"/>
<path d="M936.658 439.012V447.898H935.457V439.012H936.658ZM928.787 444.842H929.529V441.023H928.953V440.018H933.025V441.023H932.458V444.72C932.707 444.695 932.947 444.671 933.171 444.637L933.259 445.535C931.853 445.833 930.037 445.867 928.923 445.867L928.787 444.842ZM930.632 444.822C930.862 444.817 931.091 444.808 931.326 444.798V441.023H930.632V444.822ZM932.82 443.357V442.244H933.679V439.188H934.861V447.479H933.679V443.357H932.82ZM940.056 439.275C941.409 439.271 942.424 440.12 942.429 441.307C942.424 442.483 941.409 443.323 940.056 443.328C938.684 443.323 937.664 442.483 937.664 441.307C937.664 440.12 938.684 439.271 940.056 439.275ZM938.874 441.307C938.865 441.941 939.368 442.317 940.056 442.322C940.73 442.317 941.223 441.941 941.228 441.307C941.223 440.667 940.73 440.291 940.056 440.291C939.373 440.291 938.865 440.667 938.874 441.307ZM939.001 444.793V443.836H944.968V446.248H940.242V446.824H945.212V447.801H939.021V445.34H943.728V444.793H939.001ZM943.718 443.465V439.012H944.968V443.465H943.718ZM936.472 451.021V459.898H935.203V457.936H933.396V456.998H935.203V451.021H936.472ZM928.845 455.523C930.51 455.523 932.717 455.514 934.636 455.26L934.705 456.168C933.923 456.305 933.123 456.393 932.332 456.446V459.635H931.072V456.51C930.334 456.534 929.631 456.539 929.001 456.539L928.845 455.523ZM929.47 453.199C929.465 452.13 930.422 451.378 931.755 451.373C933.069 451.378 934.036 452.13 934.041 453.199C934.036 454.293 933.069 455.016 931.755 455.016C930.422 455.016 929.465 454.293 929.47 453.199ZM930.642 453.199C930.637 453.756 931.091 454.068 931.755 454.068C932.395 454.068 932.849 453.756 932.859 453.199C932.849 452.657 932.4 452.32 931.755 452.32C931.091 452.32 930.637 452.657 930.642 453.199ZM944.958 451.012V459.898H943.708V451.012H944.958ZM937.576 457.281C939.036 456.642 939.758 455.147 939.763 453.795V453.453H937.869V452.457H939.753V451.207H940.994V452.457H942.849V453.453H941.003V453.795C941.003 455.084 941.731 456.534 943.21 457.145L942.537 458.102C941.526 457.687 940.803 456.837 940.398 455.816C940.002 456.896 939.275 457.804 938.24 458.238L937.576 457.281Z" fill="black"/>
<circle cx="892" cy="397" r="20.25" fill="#CCCCCC" stroke="black" stroke-width="1.5"/>
<path d="M887.229 387.012V395.898H886.028V391.455H885.198V395.469H884.026V387.158H885.198V390.449H886.028V387.012H887.229ZM879.924 393.73V387.998H881.174V392.642C881.887 392.622 882.673 392.559 883.528 392.393L883.655 393.467C882.463 393.672 881.448 393.735 880.53 393.73H879.924ZM895.256 387.012V388.73H896.457V389.756H895.256V391.455H894.006V387.012H895.256ZM888.469 391.123V387.432H892.737V391.123H888.469ZM889.358 392.764V391.807H895.256V394.229H890.598V394.824H895.51V395.801H889.377V393.33H894.016V392.764H889.358ZM889.7 390.137H891.506V388.408H889.7V390.137ZM900.901 387.139C902.947 387.139 904.128 387.676 904.133 388.652C904.128 389.644 902.947 390.176 900.901 390.176C898.85 390.176 897.659 389.644 897.659 388.652C897.659 387.676 898.85 387.139 900.901 387.139ZM896.848 391.582V390.596H904.954V391.582H896.848ZM897.786 393.008V392.1H903.967V394.365H899.016V394.902H904.202V395.84H897.795V393.496H902.737V393.008H897.786ZM898.967 388.652C898.962 389.087 899.597 389.258 900.901 389.258C902.214 389.258 902.844 389.087 902.844 388.652C902.844 388.257 902.214 388.047 900.901 388.047C899.597 388.047 898.962 388.257 898.967 388.652ZM887.688 402.479V403.455H879.563V402.479H887.688ZM880.5 404.92V403.982H886.682V406.307H881.731V406.854H886.916V407.82H880.51V405.418H885.452V404.92H880.5ZM880.579 401.99V399.188H886.653V400.184H881.819V401.014H886.721V401.99H880.579ZM890.657 399.637C891.858 399.637 892.756 400.623 892.932 402.225H894.475V399.012H895.706V407.918H894.475V403.221H892.947C892.815 404.93 891.897 405.975 890.657 405.975C889.309 405.975 888.342 404.754 888.352 402.801C888.342 400.862 889.309 399.637 890.657 399.637ZM889.543 402.801C889.539 404.124 889.993 404.847 890.657 404.842C891.326 404.847 891.77 404.124 891.77 402.801C891.77 401.482 891.326 400.76 890.657 400.76C889.993 400.76 889.539 401.482 889.543 402.801ZM902.102 399.578V400.555H900.364C900.378 401.204 901.038 401.829 902.395 402.02L901.897 402.977C900.867 402.806 900.144 402.371 899.739 401.79C899.329 402.42 898.582 402.884 897.473 403.074L896.975 402.127C898.401 401.912 899.065 401.253 899.084 400.555H897.346V399.578H902.102ZM896.809 403.602C898.44 403.602 900.662 403.582 902.581 403.318L902.649 404.236C901.873 404.373 901.077 404.461 900.295 404.52V407.635H899.036V404.583C898.293 404.612 897.59 404.617 896.965 404.617L896.809 403.602ZM901.36 405.984V405.047H903.166V399.021H904.436V407.898H903.166V405.984H901.36Z" fill="black"/>
<circle cx="848" cy="397" r="20.25" fill="#CCCCCC" stroke="black" stroke-width="1.5"/>
<path d="M842.427 384.652V385.127C842.424 385.769 842.436 386.524 842.187 387.676L841.455 387.6C841.542 387.195 841.598 386.835 841.633 386.51L838.537 386.686L838.431 386.047L841.677 385.941C841.692 385.689 841.692 385.461 841.695 385.25H838.607V384.652H842.427ZM838.05 388.924V388.314H839.791V387.025H840.535V388.314H842.914V388.924H838.05ZM847.707 384.207V389.539H846.951V384.207H847.707ZM843.207 387.934C843.895 387.169 844.144 386.413 844.2 385.361H843.458V384.752H844.917C844.912 386.188 844.709 387.345 843.775 388.361L843.207 387.934ZM844.736 388.314C845.418 387.43 845.647 386.527 845.697 385.361H845.105V384.752H846.412C846.409 386.249 846.242 387.576 845.351 388.701L844.736 388.314ZM852.892 384.207V389.551H852.148V384.207H852.892ZM848.703 385.256V384.652H851.24V386.709H849.482V387.688C850.296 387.682 850.985 387.641 851.767 387.512L851.832 388.115C850.956 388.271 850.162 388.303 849.189 388.303H848.708V386.117H850.478V385.256H848.703ZM857.814 384.207V386.252H858.57V386.867H857.814V389.527H857.064V384.207H857.814ZM853.548 388.033C854.811 387.4 855.491 386.551 855.631 385.361H853.853V384.752H856.39C856.384 386.346 855.763 387.726 853.97 388.607L853.548 388.033ZM842.632 391.213V394.4H841.923V393.111H841.425V394.213H840.728V391.307H841.425V392.502H841.923V391.213H842.632ZM838.261 394.043V391.623H839.011V393.431C839.492 393.419 839.937 393.378 840.441 393.275L840.505 393.885C839.861 394.014 839.298 394.046 838.636 394.043H838.261ZM838.964 395.496C838.961 394.843 839.685 394.444 840.81 394.447C841.929 394.444 842.656 394.843 842.662 395.496C842.656 396.141 841.929 396.542 840.81 396.539C839.685 396.542 838.961 396.141 838.964 395.496ZM839.714 395.496C839.708 395.798 840.113 395.959 840.81 395.959C841.504 395.959 841.906 395.798 841.906 395.496C841.906 395.188 841.504 395.024 840.81 395.027C840.113 395.024 839.708 395.188 839.714 395.496ZM846.265 391.564V392.162H845.205C845.207 392.783 845.585 393.384 846.435 393.633L846.078 394.219C845.489 394.04 845.079 393.68 844.844 393.226C844.607 393.762 844.173 394.189 843.535 394.4L843.154 393.809C844.039 393.53 844.44 392.839 844.449 392.162H843.359V391.564H846.265ZM843.892 395.502C843.889 394.852 844.592 394.474 845.72 394.477C846.831 394.474 847.516 394.852 847.519 395.502C847.516 396.155 846.831 396.542 845.72 396.539C844.592 396.542 843.889 396.155 843.892 395.502ZM844.642 395.502C844.636 395.807 845.02 395.959 845.72 395.959C846.412 395.959 846.781 395.807 846.781 395.502C846.781 395.203 846.412 395.054 845.72 395.057C845.02 395.054 844.636 395.203 844.642 395.502ZM846.716 394.371V391.207H847.466V392.443H848.187V393.053H847.466V394.371H846.716ZM852.816 391.67V392.174C852.813 392.842 852.813 393.592 852.599 394.723L851.849 394.646C852.054 393.639 852.063 392.889 852.066 392.262H848.925V391.67H852.816ZM848.421 395.889V395.279H850.162V393.445H850.906V395.279H853.285V395.889H848.421ZM858.23 391.207V396.539H857.515V391.207H858.23ZM853.654 393.516C853.654 392.323 854.108 391.585 854.814 391.588C855.456 391.585 855.895 392.186 855.977 393.182H856.414V391.283H857.117V396.293H856.414V393.773H855.983C855.918 394.819 855.47 395.455 854.814 395.455C854.108 395.455 853.654 394.714 853.654 393.516ZM854.345 393.516C854.339 394.336 854.515 394.74 854.814 394.734C855.122 394.74 855.303 394.336 855.3 393.516C855.303 392.698 855.122 392.291 854.814 392.291C854.515 392.291 854.339 392.698 854.345 393.516ZM842.398 400.592V401.184H840.851V402.32H842.931V402.93H838.05V402.32H840.107V401.184H838.624V398.582H842.357V399.18H839.374V400.592H842.398ZM845.199 399.355C845.202 399.906 845.582 400.48 846.453 400.709L846.107 401.301C845.5 401.137 845.079 400.785 844.835 400.346C844.601 400.829 844.176 401.21 843.552 401.389L843.195 400.803C844.059 400.568 844.455 399.953 844.455 399.355H843.382V398.764H844.455V398.189H845.21V398.764H846.277V399.355H845.199ZM843.874 402.291V401.693H847.466V403.545H846.716V402.291H843.874ZM846.716 401.477V398.207H847.466V399.52H848.187V400.146H847.466V401.477H846.716ZM852.628 398.207V400.293H853.414V400.908H852.628V403.539H851.89V398.207H852.628ZM848.392 399.602V399.004H849.599V398.289H850.349V399.004H851.527V399.602H848.392ZM848.609 401.172C848.606 400.428 849.186 399.897 849.974 399.9C850.75 399.897 851.333 400.428 851.333 401.172C851.333 401.916 850.75 402.44 849.974 402.443C849.186 402.44 848.606 401.916 848.609 401.172ZM849.324 401.172C849.324 401.585 849.596 401.831 849.974 401.828C850.346 401.831 850.619 401.585 850.619 401.172C850.619 400.762 850.346 400.51 849.974 400.504C849.596 400.51 849.324 400.762 849.324 401.172ZM857.937 399.66V400.246H854.21V398.395H854.955V399.66H857.937ZM853.601 401.406V400.82H858.482V401.406H853.601ZM854.164 403.422V401.84H854.914V402.824H857.972V403.422H854.164ZM837.306 408.16V410H836.439V406.818H837.265V407.375H837.3C837.444 407.009 837.784 406.777 838.255 406.777C838.92 406.777 839.354 407.231 839.351 407.973V410H838.49V408.125C838.487 407.732 838.276 407.498 837.916 407.498C837.555 407.498 837.306 407.741 837.306 408.16ZM844.05 405.207V407.252H844.806V407.867H844.05V410.527H843.3V405.207H844.05ZM839.785 409.033C841.047 408.4 841.727 407.551 841.868 406.361H840.089V405.752H842.626C842.621 407.346 841.999 408.726 840.207 409.607L839.785 409.033ZM847.097 406.66C847.094 407.521 847.54 408.444 848.433 408.816L848.029 409.402C847.402 409.136 846.968 408.605 846.728 407.961C846.488 408.661 846.045 409.247 845.416 409.537L844.988 408.945C845.873 408.55 846.33 407.562 846.33 406.66V406.332H845.199V405.723H848.21V406.332H847.097V406.66ZM848.738 410.539V405.207H849.494V410.539H848.738ZM852.699 408.471C853.809 408.471 854.495 408.852 854.498 409.502C854.495 410.161 853.809 410.545 852.699 410.545C851.571 410.545 850.868 410.161 850.871 409.502C850.868 408.852 851.571 408.471 852.699 408.471ZM850.373 408.049V405.541H851.117V406.215H852.207V405.541H852.957V408.049H850.373ZM851.117 407.457H852.207V406.795H851.117V407.457ZM851.621 409.502C851.615 409.807 851.999 409.965 852.699 409.965C853.39 409.965 853.759 409.807 853.759 409.502C853.759 409.197 853.39 409.054 852.699 409.051C851.999 409.054 851.615 409.197 851.621 409.502ZM853.695 408.354V405.207H854.445V406.443H855.166V407.07H854.445V408.354H853.695ZM856.378 405.477V406.162H857.427V405.477H858.166V406.426H859.15V405.207H859.894V408.125H859.15V407.035H858.166V407.973H855.628V405.477H856.378ZM856.337 410.469V408.348H857.076V408.84H859.15V408.348H859.894V410.469H856.337ZM856.378 407.375H857.427V406.736H856.378V407.375ZM857.076 409.871H859.15V409.414H857.076V409.871Z" fill="black"/>
<circle cx="936" cy="346" r="20.25" fill="#CCCCCC" stroke="black" stroke-width="1.5"/>
<path d="M923.98 341H922.556L924.762 334.637H926.458L928.656 341H927.241L926.762 339.532H924.459L923.98 341ZM924.793 338.504H926.428L925.632 336.069H925.588L924.793 338.504ZM929.693 341L928.392 336.228H929.71L930.458 339.453H930.501L931.284 336.228H932.576L933.367 339.436H933.411L934.149 336.228H935.467L934.158 341H932.787L931.96 337.968H931.899L931.073 341H929.693ZM935.898 339.664C935.902 338.601 936.755 338.253 937.673 338.196C938.016 338.174 938.658 338.144 938.86 338.135V337.748C938.855 337.348 938.583 337.12 938.095 337.115C937.651 337.12 937.375 337.317 937.304 337.643H936.065C936.144 336.816 936.865 336.166 938.13 336.166C939.172 336.166 940.156 336.632 940.152 337.783V341H938.921V340.341H938.886C938.653 340.78 938.196 341.092 937.489 341.088C936.575 341.092 935.902 340.609 935.898 339.664ZM937.146 339.629C937.146 339.994 937.44 340.187 937.858 340.191C938.451 340.187 938.864 339.8 938.86 339.295V338.948C938.662 338.957 938.104 338.987 937.884 339.005C937.432 339.044 937.146 339.26 937.146 339.629ZM941.145 341V334.637H942.446V338.056H942.516L944.063 336.228H945.557L943.777 338.293L945.654 341H944.125L942.811 339.058L942.446 339.471V341H941.145ZM948.124 341.097C946.66 341.092 945.764 340.147 945.768 338.636C945.764 337.164 946.673 336.166 948.071 336.166C949.323 336.166 950.312 336.957 950.312 338.583V338.952H947.051C947.051 339.673 947.478 340.117 948.15 340.121C948.594 340.117 948.91 339.923 949.038 339.638H950.277C950.092 340.521 949.301 341.092 948.124 341.097ZM947.051 338.135H949.082C949.077 337.555 948.677 337.137 948.097 337.142C947.5 337.137 947.078 337.585 947.051 338.135ZM933.165 350V345.228H934.465V350H933.165ZM933.103 343.944C933.103 343.575 933.424 343.281 933.815 343.276C934.202 343.281 934.522 343.575 934.518 343.944C934.522 344.305 934.202 344.604 933.815 344.604C933.424 344.604 933.103 344.305 933.103 343.944ZM936.777 347.24V350H935.476V345.228H936.715V346.062H936.768C936.983 345.513 937.493 345.166 938.201 345.166C939.198 345.166 939.849 345.847 939.844 346.959V350H938.552V347.188C938.548 346.599 938.231 346.247 937.691 346.247C937.15 346.247 936.777 346.612 936.777 347.24ZM934.092 354.228L932.413 359H930.954L929.284 354.228H930.655L931.657 357.655H931.71L932.712 354.228H934.092ZM936.729 359.097C935.265 359.092 934.369 358.147 934.373 356.636C934.369 355.164 935.278 354.166 936.676 354.166C937.928 354.166 938.917 354.957 938.917 356.583V356.952H935.656C935.656 357.673 936.083 358.117 936.755 358.121C937.199 358.117 937.515 357.923 937.643 357.638H938.882C938.697 358.521 937.906 359.092 936.729 359.097ZM935.656 356.135H937.687C937.682 355.555 937.282 355.137 936.702 355.142C936.104 355.137 935.683 355.585 935.656 356.135ZM939.734 359V354.228H941.035V359H939.734ZM939.673 352.944C939.673 352.575 939.994 352.281 940.385 352.276C940.771 352.281 941.092 352.575 941.088 352.944C941.092 353.305 940.771 353.604 940.385 353.604C939.994 353.604 939.673 353.305 939.673 352.944ZM943.347 352.637V359H942.046V352.637H943.347Z" fill="black"/>
<circle cx="1141" cy="221" r="20.25" fill="#CCCCCC" stroke="black" stroke-width="1.5"/>
<path d="M1139.67 215.426V218.426H1141.11V219.656H1139.67V223.277H1138.17V215.426H1139.67ZM1131.52 221.578V216.176H1133.01V217.723H1135.19V216.176H1136.69V221.578H1131.52ZM1132.76 225.891V222.469H1134.24V224.695H1140.06V225.891H1132.76ZM1133.01 220.406H1135.19V218.871H1133.01V220.406ZM1151.42 216.973V218.18H1150.04V219.27H1151.42V220.488H1150.04V222.188H1148.54V215.414H1150.04V216.973H1151.42ZM1141.58 217.594V216.434H1144.01V215.355H1145.49V216.434H1147.91V217.594H1141.58ZM1142.1 219.879C1142.1 218.742 1143.17 217.963 1144.74 217.957C1146.3 217.963 1147.37 218.742 1147.37 219.879C1147.37 221.027 1146.3 221.789 1144.74 221.789C1143.18 221.789 1142.1 221.027 1142.1 219.879ZM1142.95 224.191C1142.94 222.99 1144.32 222.287 1146.56 222.281C1148.75 222.287 1150.15 222.99 1150.16 224.191C1150.15 225.363 1148.75 226.084 1146.56 226.078C1144.32 226.084 1142.94 225.363 1142.95 224.191ZM1143.56 219.879C1143.55 220.406 1144.03 220.682 1144.74 220.676C1145.46 220.682 1145.95 220.406 1145.95 219.879C1145.95 219.346 1145.46 219.053 1144.74 219.047C1144.03 219.053 1143.55 219.346 1143.56 219.879ZM1144.43 224.191C1144.42 224.689 1145.16 224.965 1146.56 224.965C1147.92 224.965 1148.66 224.689 1148.66 224.191C1148.66 223.658 1147.92 223.424 1146.56 223.418C1145.16 223.424 1144.42 223.658 1144.43 224.191Z" fill="black"/>
<circle cx="1377" cy="259" r="20.25" fill="#CCCCCC" stroke="black" stroke-width="1.5"/>
<path d="M1367.42 254.246C1367.41 255.506 1368.7 256.895 1371.15 257.199L1370.56 258.406C1368.7 258.137 1367.33 257.275 1366.63 256.121C1365.93 257.27 1364.57 258.137 1362.73 258.406L1362.13 257.199C1364.56 256.895 1365.84 255.506 1365.85 254.246V253.73H1367.42V254.246ZM1361.76 260.434V259.215H1371.49V260.434H1367.34V264.078H1365.86V260.434H1361.76ZM1378.44 254V255.195H1376.3C1376.37 256.326 1377.18 257.445 1378.85 257.902L1378.1 259.062C1376.88 258.711 1376.03 257.979 1375.54 257.053C1375.06 258.061 1374.18 258.863 1372.92 259.25L1372.17 258.078C1373.87 257.592 1374.69 256.402 1374.76 255.195H1372.58V254H1378.44ZM1373.92 263.961V259.648H1375.4V260.645H1379.57V259.648H1381.06V263.961H1373.92ZM1375.4 262.766H1379.57V261.805H1375.4V262.766ZM1379.56 259.203V253.414H1381.06V259.203H1379.56ZM1388.26 254.023V255.219H1384.59V256.051H1387.94V257.199H1384.59V258.078C1386.47 258.072 1387.66 258.043 1389.01 257.82L1389.16 258.98C1387.64 259.244 1386.28 259.268 1384 259.262H1383.09V254.023H1388.26ZM1384.28 263.961V260.188H1391.43V263.961H1384.28ZM1385.76 262.766H1389.97V261.348H1385.76V262.766ZM1389.93 259.754V253.426H1391.43V259.754H1389.93Z" fill="black"/>
<circle cx="1556" cy="229" r="20.25" fill="#CCCCCC" stroke="black" stroke-width="1.5"/>
<path d="M1555.74 218.213V227.988H1554.44V223.079H1553.49V227.516H1552.24V218.374H1553.49V221.983H1554.44V218.213H1555.74ZM1547.56 225.775V219.341H1551.2V220.447H1548.94V224.626C1549.88 224.61 1550.72 224.556 1551.67 224.39L1551.76 225.507C1550.57 225.732 1549.53 225.77 1548.24 225.775H1547.56ZM1559.96 218.793C1561.51 218.798 1562.66 219.787 1562.67 221.188C1562.66 222.381 1561.83 223.272 1560.64 223.52V224.835C1561.46 224.787 1562.3 224.717 1563.08 224.604L1563.19 225.593C1561.02 226.006 1558.7 226.022 1556.99 226.022L1556.83 224.916C1557.55 224.916 1558.39 224.911 1559.27 224.889V223.514C1558.08 223.267 1557.24 222.375 1557.24 221.188C1557.24 219.787 1558.42 218.798 1559.96 218.793ZM1558.61 221.188C1558.6 221.946 1559.19 222.418 1559.96 222.413C1560.74 222.418 1561.33 221.946 1561.33 221.188C1561.33 220.41 1560.74 219.969 1559.96 219.964C1559.19 219.969 1558.6 220.41 1558.61 221.188ZM1563.64 228.01V218.213H1565.01V228.01H1563.64ZM1547.99 230.062V231.136H1542.55V230.062H1544.66V229.127H1546.02V230.062H1547.99ZM1543.03 233.198C1543.02 232.146 1543.97 231.415 1545.32 231.415C1546.67 231.415 1547.63 232.146 1547.64 233.198C1547.63 234.256 1546.67 234.965 1545.32 234.971C1543.97 234.965 1543.02 234.256 1543.03 233.198ZM1544.17 238.881V235.4H1545.55V236.12H1549.42V235.4H1550.77V238.881H1544.17ZM1544.31 233.198C1544.31 233.687 1544.71 233.977 1545.32 233.972C1545.94 233.977 1546.36 233.687 1546.36 233.198C1546.36 232.709 1545.94 232.441 1545.32 232.436C1544.71 232.441 1544.31 232.709 1544.31 233.198ZM1545.55 237.828H1549.42V237.141H1545.55V237.828ZM1548.07 234.326V233.23H1549.4V232.403H1548.09V231.297H1549.4V229.213H1550.77V235.035H1549.4V234.326H1548.07ZM1556.73 229.782V232.833H1553.78V233.875C1555.23 233.875 1556.1 233.827 1557.09 233.639L1557.21 234.734C1556.07 234.938 1555.04 234.965 1553.15 234.971H1552.42V231.812H1555.36V230.856H1552.4V229.782H1556.73ZM1553.54 236.775V235.68H1560.28V238.988H1558.91V236.775H1553.54ZM1557.29 233.735V232.65H1558.91V231.662H1557.29V230.577H1558.91V229.224H1560.28V235.239H1558.91V233.735H1557.29ZM1566.82 229.771V230.867H1563.46V231.63H1566.53V232.683H1563.46V233.488C1565.18 233.483 1566.27 233.456 1567.51 233.252L1567.65 234.315C1566.25 234.557 1565.01 234.579 1562.92 234.573H1562.08V229.771H1566.82ZM1563.18 238.881V235.422H1569.73V238.881H1563.18ZM1564.53 237.785H1568.39V236.485H1564.53V237.785ZM1568.35 235.024V229.224H1569.73V235.024H1568.35Z" fill="black"/>
<circle cx="1028" cy="221" r="20.25" fill="#CCCCCC" stroke="black" stroke-width="1.5"/>
<path d="M1017.24 212.549V213.445H1016.53V216.935C1016.86 216.908 1017.17 216.877 1017.48 216.838L1017.54 217.646C1015.9 217.932 1014.07 217.963 1012.7 217.972L1012.58 217.058C1012.86 217.058 1013.17 217.058 1013.49 217.053V213.445H1012.78V212.549H1017.24ZM1014.57 217.036C1014.86 217.027 1015.15 217.014 1015.45 217V213.445H1014.57V217.036ZM1017.87 219.809V211.811H1018.99V214.852H1020.17V215.766H1018.99V219.809H1017.87ZM1027.78 217.928V218.842H1020.46V217.928H1027.78ZM1021.23 216.592V212.32H1022.36V213.647H1025.85V212.32H1026.96V216.592H1021.23ZM1022.36 215.713H1025.85V214.518H1022.36V215.713ZM1034.94 211.811V219.826H1033.83V211.811H1034.94ZM1028.66 213.384V212.479H1032.46V215.563H1029.83V217.031C1031.05 217.022 1032.08 216.961 1033.26 216.768L1033.35 217.673C1032.04 217.906 1030.85 217.954 1029.39 217.954H1028.67V214.676H1031.32V213.384H1028.66ZM1040.19 212.575C1040.18 215.045 1039.58 217.097 1036.6 218.596L1035.98 217.752C1037.32 217.088 1038.11 216.346 1038.56 215.458L1036.2 215.678L1036.06 214.72L1038.9 214.548C1038.99 214.21 1039.04 213.85 1039.07 213.472H1036.48V212.575H1040.19ZM1041.2 219.791V211.811H1042.33V214.878H1043.46V215.801H1042.33V219.791H1041.2ZM1022.88 221.811V224.939H1024.06V225.862H1022.88V229.809H1021.77V221.811H1022.88ZM1016.53 223.902V223.006H1018.34V221.934H1019.46V223.006H1021.23V223.902H1016.53ZM1016.85 226.258C1016.85 225.142 1017.72 224.346 1018.9 224.351C1020.06 224.346 1020.94 225.142 1020.94 226.258C1020.94 227.374 1020.06 228.161 1018.9 228.165C1017.72 228.161 1016.85 227.374 1016.85 226.258ZM1017.92 226.258C1017.92 226.877 1018.33 227.247 1018.9 227.242C1019.46 227.247 1019.87 226.877 1019.87 226.258C1019.87 225.643 1019.46 225.265 1018.9 225.256C1018.33 225.265 1017.92 225.643 1017.92 226.258ZM1031.66 226.284V227.198H1028.53V229.817H1027.42V227.198H1024.34V226.284H1031.66ZM1025.08 223.894C1025.07 222.782 1026.26 222.079 1027.98 222.074C1029.7 222.079 1030.9 222.782 1030.9 223.894C1030.9 224.979 1029.7 225.678 1027.98 225.678C1026.26 225.678 1025.07 224.979 1025.08 223.894ZM1026.23 223.894C1026.22 224.465 1026.91 224.786 1027.98 224.79C1029.06 224.786 1029.74 224.465 1029.74 223.894C1029.74 223.3 1029.06 222.975 1027.98 222.971C1026.91 222.975 1026.22 223.3 1026.23 223.894ZM1036.34 222.865C1036.33 224.039 1037.37 225.291 1039.18 225.599L1038.69 226.53C1037.29 226.253 1036.26 225.467 1035.74 224.443C1035.22 225.458 1034.18 226.249 1032.79 226.53L1032.31 225.599C1034.09 225.282 1035.13 224.025 1035.14 222.865V222.285H1036.34V222.865ZM1032.13 228.824V227.901H1039.45V228.824H1032.13Z" fill="black"/>
<circle cx="678" cy="221" r="20.25" fill="#000" stroke="black" stroke-width="1.5"/>
<path d="M665.361 216.516H667.341L669.298 220.172H669.38L671.326 216.516H673.306L670.212 221.977V225H668.455V221.977L665.361 216.516ZM674.22 225V216.516H679.916V217.969H675.978V220.031H679.623V221.484H675.978V223.547H679.927V225H674.22ZM680.958 217.969V216.516H687.908V217.969H685.306V225H683.56V217.969H680.958ZM688.962 225V218.637H690.697V225H688.962ZM688.88 216.926C688.88 216.434 689.308 216.041 689.83 216.035C690.345 216.041 690.773 216.434 690.767 216.926C690.773 217.406 690.345 217.805 689.83 217.805C689.308 217.805 688.88 217.406 688.88 216.926Z" fill="black"/>
</svg>
