<svg width="911" height="129" viewBox="0 0 911 129" fill="none" xmlns="http://www.w3.org/2000/svg">
<path d="M45.5863 43.04H34.6423V32.24H13.3303V21.728H34.6423V15.536H13.3303V5.024H45.5863V43.04ZM15.9223 37.856H26.7223V52.112H52.9303V62.624H0.802254V52.112H15.9223V37.856ZM133.483 80.912H122.539V31.376H133.483V80.912ZM55.7225 52.112H104.107V80.912H93.3065V62.624H81.0665V80.912H70.2665V62.624H55.7225V52.112ZM173.133 92.432H142.173V67.088H162.189V62.624H142.173V52.112H173.133V77.6H153.117V81.92H173.133V92.432ZM200.637 80.912H189.693V31.376H200.637V80.912ZM206.897 62.624V52.112H259.025V62.624H206.897ZM248.369 43.04H217.985V16.688H237.425V11.072H217.985V0.559993H248.369V27.056H228.929V32.528H248.369V43.04ZM247.793 111.44H218.417V85.52H236.849V80.192H218.561V69.68H247.793V95.744H229.361V100.928H247.793V111.44ZM360.773 80.912H349.829V62.624H341.621V80.912H330.677V31.376H341.621V52.112H349.829V31.376H360.773V80.912ZM327.653 103.376C327.653 95.024 334.421 88.688 342.341 88.688C350.405 88.688 357.029 95.024 357.029 103.376C357.029 111.44 350.405 117.632 342.341 117.632C334.421 117.632 327.653 111.44 327.653 103.376ZM300.149 70.4H320.021V80.912H289.205V52.112H300.149V70.4ZM338.453 103.376C338.453 105.104 340.037 107.264 342.341 107.264C344.789 107.264 346.229 105.104 346.229 103.376C346.229 101.504 344.933 99.344 342.341 99.344C339.893 99.344 338.453 101.504 338.453 103.376ZM403.706 62.624H391.034L404.282 74.864L397.514 82.208L385.85 71.552L374.186 82.208L367.274 74.72L380.522 62.624H367.418V52.112H403.706V62.624ZM428.474 80.912H417.53V31.376H428.474V52.112H443.018V62.624H428.474V80.912ZM397.946 103.376C397.946 95.024 404.714 88.688 412.634 88.688C420.698 88.688 427.322 95.024 427.322 103.376C427.322 111.44 420.698 117.632 412.634 117.632C404.714 117.632 397.946 111.44 397.946 103.376ZM408.746 103.376C408.746 105.104 410.33 107.264 412.634 107.264C415.082 107.264 416.522 105.104 416.522 103.376C416.522 101.504 415.226 99.344 412.634 99.344C410.186 99.344 408.746 101.504 408.746 103.376ZM460.669 35.984H471.469V52.112H497.677V62.624H445.549V52.112H460.669V35.984ZM488.173 42.608H477.229V24.176H458.077V13.664H488.173V42.608ZM500.901 65.648C500.901 57.296 507.669 50.96 515.589 50.96C523.653 50.96 530.277 57.296 530.277 65.648C530.277 73.712 523.653 79.904 515.589 79.904C507.669 79.904 500.901 73.712 500.901 65.648ZM535.317 62.624V52.112H546.549V31.376H557.493V80.912H546.549V62.624H535.317ZM575.925 80.912H564.981V31.376H575.925V80.912ZM511.413 65.648C511.413 67.664 513.141 69.968 515.589 69.968C518.325 69.968 519.909 67.664 519.909 65.648C519.909 63.632 518.325 61.328 515.589 61.328C513.141 61.328 511.413 63.632 511.413 65.648ZM643.898 107.264C643.898 105.68 644.042 104.096 644.618 102.656H638.858V93.584H653.258V83.936H664.058V93.584H678.17V102.656H672.554C672.986 104.096 673.274 105.68 673.274 107.264C673.274 115.328 666.65 121.52 658.586 121.52C650.666 121.52 643.898 115.328 643.898 107.264ZM676.01 80.912H665.066V62.624H644.042V52.112H665.066V31.376H676.01V80.912ZM620.858 70.4H641.594V80.912H609.914V52.112H620.858V70.4ZM654.41 107.264C654.41 109.28 656.138 111.584 658.586 111.584C661.322 111.584 662.906 109.28 662.906 107.264C662.906 105.248 661.322 102.944 658.586 102.944C656.138 102.944 654.41 105.248 654.41 107.264ZM735.203 62.624H683.075V52.112H735.203V62.624ZM720.947 96.032H694.739V69.68H705.683V85.52H720.947V96.032ZM694.163 13.664H705.107V30.656H724.259V41.168H694.163V13.664ZM797.064 80.912H765.384V41.024H775.752V52.112H786.696V41.024H797.064V80.912ZM824.424 80.912H813.48V31.376H824.424V52.112H838.968V62.624H824.424V80.912ZM793.896 103.376C793.896 95.024 800.664 88.688 808.584 88.688C816.648 88.688 823.272 95.024 823.272 103.376C823.272 111.44 816.648 117.632 808.584 117.632C800.664 117.632 793.896 111.44 793.896 103.376ZM775.752 62.336V70.688H786.696V62.336H775.752ZM804.696 103.376C804.696 105.104 806.28 107.264 808.584 107.264C811.032 107.264 812.472 105.104 812.472 103.376C812.472 101.504 811.176 99.344 808.584 99.344C806.136 99.344 804.696 101.504 804.696 103.376ZM874.906 80.912H843.226V41.024H853.594V52.112H864.538V41.024H874.906V80.912ZM910.618 128.432H881.098V89.264H891.898V99.056H899.818V89.264H910.618V128.432ZM881.674 62.624V52.112H899.674V31.376H910.618V80.912H899.674V62.624H881.674ZM853.594 62.336V70.688H864.538V62.336H853.594ZM891.898 109.28V118.064H899.818V109.28H891.898Z" fill="url(#paint0_linear_1300_3406)"/>
<defs>
<linearGradient id="paint0_linear_1300_3406" x1="-2" y1="67" x2="918" y2="67" gradientUnits="userSpaceOnUse">
<stop stop-color="#DD4FFC"/>
<stop offset="0.31" stop-color="#1160F7"/>
<stop offset="0.645" stop-color="#7340FB"/>
<stop offset="1" stop-color="#35CFFA"/>
</linearGradient>
</defs>
</svg>
