<svg width="128" height="111" viewBox="0 0 128 111" fill="none" xmlns="http://www.w3.org/2000/svg">
<g id="&#226;&#128;&#156;">
<path d="M28.4031 109C20.0314 109 13.4843 105.778 8.76178 99.3343C4.25393 92.6758 2 83.3323 2 71.3039C2 56.0537 5.64921 42.844 12.9476 31.6748C20.2461 20.2908 30.8717 10.7325 44.8246 3L54.1623 20.076C44.5026 25.8754 37.2042 32.3191 32.267 39.4073C27.5445 46.4954 25.1832 55.3019 25.1832 65.8267L28.4031 92.2462L12.6257 71.9483C14.9869 69.5856 17.4555 67.8673 20.0314 66.7933C22.6073 65.5046 25.3979 64.8602 28.4031 64.8602C34.4136 64.8602 39.5654 66.6859 43.8586 70.3374C48.1518 73.9889 50.2984 79.2513 50.2984 86.1246C50.2984 93.2128 48.2592 98.7974 44.1806 102.878C40.1021 106.959 34.8429 109 28.4031 109ZM99.2408 109C90.8691 109 84.322 105.778 79.5995 99.3343C75.0916 92.6758 72.8377 83.3323 72.8377 71.3039C72.8377 56.0537 76.3796 42.844 83.4633 31.6748C90.7618 20.2908 101.495 10.7325 115.662 3L125 20.076C115.34 25.8754 108.042 32.3191 103.105 39.4073C98.3822 46.4954 96.0209 55.3019 96.0209 65.8267L99.2408 92.2462L83.4633 71.9483C85.8246 69.5856 88.1859 67.8673 90.5471 66.7933C93.123 65.5046 96.0209 64.8602 99.2408 64.8602C105.037 64.8602 110.081 66.6859 114.374 70.3374C118.668 73.9889 120.814 79.2513 120.814 86.1246C120.814 93.2128 118.775 98.7974 114.696 102.878C110.832 106.959 105.681 109 99.2408 109Z" fill="white"/>
<path d="M7.9337 99.895L7.94417 99.9104L7.9552 99.9255C12.8764 106.64 19.7307 110 28.4031 110C35.0745 110 40.5993 107.877 44.888 103.585C49.1949 99.2757 51.2984 93.4135 51.2984 86.1246C51.2984 79.0284 49.0717 73.4584 44.5065 69.5756C40.0199 65.7597 34.6339 63.8602 28.4031 63.8602C27.6599 63.8602 26.9283 63.8978 26.2085 63.9732C26.4713 54.4277 28.7836 46.4432 33.0935 39.9704C37.9294 33.0308 45.107 26.6789 54.677 20.9333L55.5005 20.4389L55.0397 19.5962L45.702 2.52022L45.2195 1.63786L44.3399 2.12534C30.2696 9.92292 19.5108 19.5864 12.1082 31.1314C4.69042 42.4848 1 55.8896 1 71.3039C1 83.4389 3.27098 93.0076 7.9337 99.895ZM78.7714 99.895L78.7819 99.9104L78.7929 99.9255C83.7141 106.64 90.5684 110 99.2408 110C105.906 110 111.333 107.879 115.413 103.576C119.714 99.267 121.814 93.4081 121.814 86.1246C121.814 79.0284 119.587 73.4584 115.022 69.5756C110.543 65.7657 105.267 63.8602 99.2408 63.8602C98.4944 63.8602 97.7629 63.8935 97.0466 63.9602C97.3111 54.4205 99.6232 46.4404 103.931 39.9705C108.767 33.0309 115.945 26.6789 125.515 20.9333L126.338 20.4389L125.877 19.5962L116.54 2.52022L116.06 1.64353L115.183 2.12223C100.897 9.91965 90.0266 19.5847 82.6215 31.135L82.6189 31.1392C75.4187 42.4919 71.8377 55.8937 71.8377 71.3039C71.8377 83.4389 74.1087 93.0076 78.7714 99.895Z" stroke="#F1F1F1" stroke-opacity="0.5" stroke-width="2"/>
</g>
</svg>
