<svg width="927" height="77" viewBox="0 0 927 77" fill="none" xmlns="http://www.w3.org/2000/svg">
<path d="M47.162 42.94C47.386 41.932 47.554 40.896 47.666 39.832C47.834 38.768 47.974 37.676 48.086 36.556C45.062 36.556 41.842 36.612 38.426 36.724C35.01 36.78 31.65 36.892 28.346 37.06C25.098 37.172 21.99 37.312 19.022 37.48C16.054 37.592 13.478 37.732 11.294 37.9C10.454 38.012 9.81003 37.816 9.36203 37.312C8.91403 36.808 8.69003 36.136 8.69003 35.296V29.164C8.69003 27.596 9.55803 26.728 11.294 26.56C13.254 26.392 15.662 26.224 18.518 26.056C21.374 25.888 24.454 25.748 27.758 25.636C31.062 25.468 34.506 25.356 38.09 25.3C41.674 25.244 45.174 25.216 48.59 25.216C48.31 18.944 45.034 15.808 38.762 15.808C34.786 15.808 30.502 15.976 25.91 16.312C21.318 16.648 16.194 16.956 10.538 17.236C9.75403 17.292 9.11003 17.124 8.60603 16.732C8.10203 16.284 7.85003 15.668 7.85003 14.884V8.332C7.85003 7.66 8.07403 7.1 8.52203 6.652C9.02603 6.204 9.69803 5.924 10.538 5.812C16.474 5.196 22.018 4.804 27.17 4.636C32.378 4.468 37.166 4.384 41.534 4.384C47.806 4.384 52.566 6.008 55.814 9.256C59.062 12.448 60.686 17.152 60.686 23.368C60.686 27.232 60.546 30.956 60.266 34.54C59.986 38.124 59.538 41.484 58.922 44.62C58.754 45.46 58.446 46.02 57.998 46.3C57.55 46.524 56.906 46.58 56.066 46.468L49.094 45.46C48.254 45.348 47.666 45.124 47.33 44.788C47.05 44.396 46.994 43.78 47.162 42.94ZM3.65003 67.3C1.80203 67.076 0.878026 66.18 0.878026 64.612V58.396C0.878026 56.548 1.80203 55.708 3.65003 55.876C6.73003 56.156 10.202 56.436 14.066 56.716C17.986 56.996 21.85 57.192 25.658 57.304C24.874 56.968 24.258 56.436 23.81 55.708C23.362 54.924 23.138 54 23.138 52.936V45.04C23.138 43.192 24.062 42.268 25.91 42.268H32.63C34.422 42.268 35.318 43.192 35.318 45.04V53.608C35.318 55.904 36.522 57.08 38.93 57.136C40.386 57.192 42.206 57.192 44.39 57.136C46.574 57.08 48.842 56.996 51.194 56.884C53.546 56.772 55.842 56.632 58.082 56.464C60.378 56.296 62.338 56.1 63.962 55.876C64.858 55.764 65.558 55.932 66.062 56.38C66.566 56.828 66.818 57.5 66.818 58.396V64.612C66.818 66.068 65.894 66.964 64.046 67.3C62.758 67.524 61.05 67.72 58.922 67.888C56.85 68.056 54.498 68.196 51.866 68.308C49.234 68.476 46.378 68.588 43.298 68.644C40.274 68.7 37.11 68.728 33.806 68.728C27.87 68.728 22.27 68.616 17.006 68.392C11.798 68.168 7.34603 67.804 3.65003 67.3ZM92.4925 61.42C92.3245 62.372 92.0165 63.016 91.5685 63.352C91.1765 63.688 90.5325 63.856 89.6365 63.856H83.9245C82.9725 63.856 82.2445 63.604 81.7405 63.1C81.2365 62.596 81.0405 61.924 81.1525 61.084C82.1045 54.756 82.8325 48.232 83.3365 41.512C83.8965 34.736 84.1765 28.156 84.1765 21.772C84.1765 18.356 82.6365 16.648 79.5565 16.648C78.9405 16.648 78.2965 16.76 77.6245 16.984C76.9525 17.208 76.0005 17.572 74.7685 18.076C74.4325 18.244 74.0965 18.328 73.7605 18.328C72.6405 18.328 72.0805 17.656 72.0805 16.312V9.76C72.0805 8.976 72.2485 8.36 72.5845 7.912C72.9765 7.464 73.6485 7.1 74.6005 6.82C76.2245 6.372 77.6805 6.008 78.9685 5.728C80.3125 5.448 81.7125 5.308 83.1685 5.308C87.3125 5.308 90.4765 6.568 92.6605 9.088C92.8285 7.688 93.6685 6.792 95.1805 6.4C96.5245 6.008 98.0085 5.728 99.6325 5.56C101.256 5.392 102.908 5.308 104.588 5.308C108.62 5.308 111.7 6.484 113.828 8.836C115.956 11.132 117.02 14.464 117.02 18.832C117.02 27.176 116.74 34.96 116.18 42.184C115.62 49.408 114.864 55.82 113.912 61.42C113.744 62.372 113.436 63.016 112.988 63.352C112.596 63.688 111.952 63.856 111.056 63.856H105.344C104.392 63.856 103.664 63.604 103.16 63.1C102.656 62.596 102.46 61.924 102.572 61.084C103.524 54.756 104.252 48.232 104.756 41.512C105.316 34.736 105.596 28.156 105.596 21.772C105.596 18.356 104.056 16.648 100.976 16.648C100.136 16.648 99.2125 16.732 98.2045 16.9C97.2525 17.068 96.3845 17.292 95.6005 17.572C95.6005 24.908 95.3765 32.244 94.9285 39.58C94.5365 46.86 93.7245 54.14 92.4925 61.42ZM122.732 2.62C122.732 0.883998 123.6 0.0159991 125.336 0.0159991H131.468C133.204 0.0159991 134.072 0.883998 134.072 2.62V72.676C134.072 74.412 133.204 75.28 131.468 75.28H125.336C123.6 75.28 122.732 74.412 122.732 72.676V2.62ZM166.632 5.308C171.728 5.308 175.564 6.4 178.14 8.584C180.772 10.712 182.088 13.848 182.088 17.992C182.088 22.92 180.352 26.728 176.88 29.416H178.98C180.604 29.416 181.416 30.228 181.416 31.852V37.48C181.416 39.104 180.604 39.916 178.98 39.916C176.74 39.916 174.724 39.916 172.932 39.916C171.196 39.86 169.544 39.832 167.976 39.832C165.568 39.832 163.552 39.944 161.928 40.168C160.36 40.392 159.1 40.784 158.148 41.344C157.196 41.848 156.496 42.548 156.048 43.444C155.656 44.284 155.46 45.348 155.46 46.636C155.46 49.044 156.216 50.78 157.728 51.844C159.296 52.852 161.9 53.356 165.54 53.356C167.724 53.356 170.076 53.132 172.596 52.684C175.116 52.18 177.552 51.452 179.904 50.5C180.24 50.332 180.576 50.248 180.912 50.248C181.752 50.248 182.396 50.976 182.844 52.432L184.524 58.312C184.804 59.152 184.748 59.824 184.356 60.328C184.02 60.832 183.376 61.252 182.424 61.588C179.4 62.652 176.292 63.436 173.1 63.94C169.908 64.444 166.744 64.696 163.608 64.696C156.888 64.696 151.82 63.184 148.404 60.16C144.988 57.08 143.28 52.572 143.28 46.636C143.28 40.7 144.96 36.192 148.32 33.112C151.68 30.032 156.664 28.492 163.272 28.492C165.624 28.492 167.304 28.044 168.312 27.148C169.376 26.196 169.908 24.712 169.908 22.696C169.908 20.568 169.348 19.056 168.228 18.16C167.108 17.208 165.288 16.732 162.768 16.732C160.528 16.732 158.288 16.816 156.048 16.984C153.864 17.152 151.316 17.46 148.404 17.908C146.668 18.188 145.8 17.46 145.8 15.724V9.004C145.8 7.492 146.612 6.624 148.236 6.4C149.692 6.176 151.064 6.008 152.352 5.896C153.696 5.728 155.068 5.616 156.468 5.56C157.924 5.448 159.464 5.39199 161.088 5.39199C162.712 5.336 164.56 5.308 166.632 5.308ZM191.58 2.788C191.58 0.939999 192.504 0.0159991 194.352 0.0159991H200.988C202.836 0.0159991 203.76 0.939999 203.76 2.788V72.508C203.76 74.356 202.836 75.28 200.988 75.28H194.352C192.504 75.28 191.58 74.356 191.58 72.508V2.788ZM276.807 41.848C275.463 41.96 273.727 42.072 271.599 42.184C269.471 42.24 267.063 42.296 264.375 42.352C261.687 42.408 258.803 42.464 255.723 42.52C252.643 42.52 249.451 42.52 246.147 42.52C240.211 42.52 234.555 42.492 229.179 42.436C223.803 42.324 219.295 42.128 215.655 41.848C214.703 41.736 214.059 41.512 213.723 41.176C213.443 40.784 213.303 40.224 213.303 39.496V35.296C213.303 34.456 213.499 33.868 213.891 33.532C214.283 33.196 214.871 33.056 215.655 33.112C219.295 33.392 223.803 33.588 229.179 33.7C234.555 33.756 240.211 33.784 246.147 33.784C249.451 33.784 252.643 33.784 255.723 33.784C258.803 33.728 261.687 33.672 264.375 33.616C267.063 33.56 269.471 33.504 271.599 33.448C273.727 33.336 275.435 33.224 276.723 33.112C278.403 32.944 279.243 33.672 279.243 35.296V39.496C279.243 40.224 279.075 40.784 278.739 41.176C278.403 41.512 277.759 41.736 276.807 41.848ZM245.727 64.36C242.423 64.36 239.791 64.388 237.831 64.444C235.927 64.556 234.471 64.696 233.463 64.864C232.511 65.032 231.895 65.256 231.615 65.536C231.335 65.816 231.195 66.152 231.195 66.544C231.195 66.992 231.363 67.328 231.699 67.552C232.091 67.776 232.931 67.944 234.219 68.056C235.563 68.224 237.495 68.308 240.015 68.308C242.535 68.364 245.979 68.392 250.347 68.392C252.083 68.392 253.987 68.364 256.059 68.308C258.131 68.252 260.203 68.168 262.275 68.056C264.403 67.944 266.419 67.804 268.323 67.636C270.227 67.468 271.879 67.272 273.279 67.048C274.735 66.768 275.519 67.3 275.631 68.644L276.051 73.18C276.163 74.356 275.519 75.028 274.119 75.196C272.607 75.364 270.843 75.532 268.827 75.7C266.811 75.868 264.711 76.008 262.527 76.12C260.399 76.288 258.271 76.4 256.143 76.456C254.071 76.512 252.167 76.54 250.431 76.54C244.159 76.54 238.979 76.4 234.891 76.12C230.859 75.84 227.667 75.308 225.315 74.524C222.963 73.796 221.311 72.76 220.359 71.416C219.463 70.128 219.015 68.448 219.015 66.376C219.015 64.304 219.491 62.596 220.443 61.252C221.451 59.964 222.991 58.956 225.063 58.228C227.191 57.444 229.935 56.912 233.295 56.632C236.711 56.352 240.799 56.212 245.559 56.212C247.911 56.212 250.291 56.212 252.699 56.212C255.163 56.156 257.319 56.128 259.167 56.128C261.239 56.128 262.275 55.624 262.275 54.616C262.275 53.552 261.295 53.02 259.335 53.02C257.319 53.02 254.743 53.048 251.607 53.104C248.471 53.16 245.167 53.244 241.695 53.356C238.279 53.468 234.863 53.608 231.447 53.776C228.087 53.944 225.175 54.112 222.711 54.28C221.367 54.336 220.695 53.72 220.695 52.432V47.896C220.695 47.336 220.835 46.916 221.115 46.636C221.395 46.356 221.927 46.188 222.711 46.132C225.903 45.908 229.319 45.712 232.959 45.544C236.655 45.376 240.407 45.264 244.215 45.208C248.023 45.096 251.775 45.04 255.471 45.04C259.223 44.984 262.723 45.012 265.971 45.124C268.883 45.236 271.011 45.74 272.355 46.636C273.699 47.532 274.371 48.904 274.371 50.752C274.371 52.376 273.923 53.72 273.027 54.784C272.131 55.792 270.899 56.52 269.331 56.968H271.683C273.027 56.968 273.699 57.556 273.699 58.732V62.764C273.699 63.996 273.027 64.612 271.683 64.612C270.171 64.612 268.687 64.584 267.231 64.528C265.775 64.528 264.095 64.5 262.191 64.444C260.287 64.444 258.019 64.416 255.387 64.36C252.811 64.36 249.591 64.36 245.727 64.36ZM270.759 19.924C269.191 19.924 267.679 19.924 266.223 19.924C264.767 19.868 263.115 19.84 261.267 19.84C259.475 19.784 257.347 19.756 254.883 19.756C252.419 19.7 249.367 19.672 245.727 19.672C242.983 19.672 240.743 19.7 239.007 19.756C237.271 19.756 235.899 19.84 234.891 20.008C233.939 20.12 233.295 20.288 232.959 20.512C232.623 20.736 232.455 21.016 232.455 21.352C232.455 21.688 232.623 21.968 232.959 22.192C233.295 22.416 233.967 22.584 234.975 22.696C235.983 22.752 237.383 22.808 239.175 22.864C241.023 22.864 243.403 22.864 246.315 22.864C250.627 22.864 254.911 22.78 259.167 22.612C263.479 22.388 267.763 21.94 272.019 21.268C273.251 21.1 273.951 21.604 274.119 22.78L274.791 27.148C274.959 28.268 274.399 28.968 273.111 29.248C271.655 29.472 269.975 29.696 268.071 29.92C266.223 30.088 264.291 30.256 262.275 30.424C260.259 30.536 258.243 30.62 256.227 30.676C254.211 30.732 252.279 30.76 250.431 30.76C244.495 30.76 239.567 30.648 235.647 30.424C231.783 30.2 228.703 29.752 226.407 29.08C224.167 28.408 222.571 27.456 221.619 26.224C220.723 24.992 220.275 23.34 220.275 21.268C220.275 19.364 220.723 17.796 221.619 16.564C222.515 15.332 223.943 14.38 225.903 13.708C227.919 12.98 230.523 12.504 233.715 12.28C236.963 12 240.911 11.86 245.559 11.86C247.911 11.86 250.095 11.86 252.111 11.86C254.127 11.804 256.059 11.776 257.907 11.776C259.027 11.776 259.811 11.72 260.259 11.608C260.763 11.44 261.015 11.132 261.015 10.684C261.015 10.236 260.791 9.928 260.343 9.76C259.951 9.592 259.195 9.508 258.075 9.508C255.667 9.508 252.923 9.536 249.843 9.592C246.819 9.648 243.739 9.732 240.603 9.844C237.467 9.9 234.415 9.984 231.447 10.096C228.535 10.208 225.987 10.32 223.803 10.432C222.571 10.488 221.955 9.956 221.955 8.836V4.3C221.955 3.124 222.571 2.508 223.803 2.452C228.675 2.172 233.435 1.976 238.083 1.864C242.787 1.696 247.379 1.612 251.859 1.612C256.675 1.612 261.295 1.696 265.719 1.864C268.239 1.976 270.087 2.424 271.263 3.208C272.495 3.936 273.111 5.196 273.111 6.988C273.111 8.444 272.691 9.648 271.851 10.6C271.011 11.496 269.835 12.168 268.323 12.616H270.759C271.879 12.616 272.439 13.204 272.439 14.38V18.244C272.439 19.364 271.879 19.924 270.759 19.924ZM316.532 60.244C316.532 54.7 319.024 50.584 324.008 47.896C329.048 45.208 336.552 43.864 346.52 43.864C356.488 43.864 363.964 45.208 368.948 47.896C373.988 50.584 376.508 54.7 376.508 60.244C376.508 65.788 373.988 69.904 368.948 72.592C363.964 75.28 356.488 76.624 346.52 76.624C336.552 76.624 329.048 75.28 324.008 72.592C319.024 69.904 316.532 65.788 316.532 60.244ZM363.488 2.62C363.488 0.883998 364.356 0.0159991 366.092 0.0159991H372.224C373.96 0.0159991 374.828 0.883998 374.828 2.62V38.236C374.828 39.972 373.96 40.84 372.224 40.84H366.092C364.356 40.84 363.488 39.972 363.488 38.236V24.88H360.464C359.512 24.88 358.728 25.188 358.112 25.804C357.496 26.364 357.188 27.12 357.188 28.072V36.556C357.188 38.292 356.32 39.16 354.584 39.16H348.452C346.716 39.16 345.848 38.292 345.848 36.556V3.45999C345.848 1.724 346.716 0.855998 348.452 0.855998H354.584C356.32 0.855998 357.188 1.724 357.188 3.45999V15.052C357.916 14.044 359.008 13.54 360.464 13.54H363.488V2.62ZM318.212 1.948C320.172 1.948 320.928 2.788 320.48 4.468C319.808 7.268 319.304 10.208 318.968 13.288C318.688 16.368 318.548 19.532 318.548 22.78C318.548 24.796 319.024 26.196 319.976 26.98C320.928 27.764 322.692 28.156 325.268 28.156C326.052 28.156 326.892 28.1 327.788 27.988C328.74 27.82 329.72 27.624 330.728 27.4C331.736 27.176 332.716 26.896 333.668 26.56C334.676 26.224 335.6 25.888 336.44 25.552C336.888 25.384 337.28 25.3 337.616 25.3C338.512 25.3 339.128 25.888 339.464 27.064L341.144 33.112C341.368 33.896 341.368 34.54 341.144 35.044C340.92 35.492 340.388 35.94 339.548 36.388C338.708 36.836 337.644 37.256 336.356 37.648C335.124 37.984 333.836 38.292 332.492 38.572C331.148 38.852 329.804 39.076 328.46 39.244C327.116 39.412 325.94 39.496 324.932 39.496C318.66 39.496 314.124 38.236 311.324 35.716C308.58 33.196 307.208 29.08 307.208 23.368C307.208 16.592 307.824 10.208 309.056 4.216C309.224 3.432 309.504 2.872 309.896 2.536C310.344 2.144 311.016 1.948 311.912 1.948H318.212ZM346.52 65.704C353.016 65.704 357.608 65.284 360.296 64.444C362.984 63.66 364.328 62.26 364.328 60.244C364.328 58.228 362.984 56.828 360.296 56.044C357.608 55.204 353.016 54.784 346.52 54.784C340.024 54.784 335.432 55.204 332.744 56.044C330.056 56.828 328.712 58.228 328.712 60.244C328.712 62.26 330.056 63.66 332.744 64.444C335.432 65.284 340.024 65.704 346.52 65.704ZM388.756 60.244C388.756 49.324 398.052 43.864 416.644 43.864C435.236 43.864 444.532 49.324 444.532 60.244C444.532 71.164 435.236 76.624 416.644 76.624C398.052 76.624 388.756 71.164 388.756 60.244ZM420.508 1.948C422.356 1.948 423.28 2.872 423.28 4.72V10.516C423.28 12.364 422.356 13.288 420.508 13.288H409.42V14.632C409.42 18.664 410.512 21.8 412.696 24.04C414.88 26.224 417.68 27.316 421.096 27.316C422.832 27.316 423.7 28.128 423.7 29.752V36.052C423.7 37.788 422.832 38.656 421.096 38.656C419.024 38.656 417.036 38.432 415.132 37.984C413.284 37.48 411.576 36.78 410.008 35.884C408.496 34.988 407.152 33.868 405.976 32.524C404.856 31.124 404.016 29.556 403.456 27.82C402.28 31.348 400.04 34.036 396.736 35.884C393.488 37.732 389.764 38.656 385.564 38.656C383.716 38.656 382.792 37.788 382.792 36.052V29.752C382.792 28.128 383.716 27.316 385.564 27.316C388.98 27.316 391.78 26.224 393.964 24.04C396.148 21.8 397.24 18.664 397.24 14.632V13.288H385.984C384.136 13.288 383.212 12.364 383.212 10.516V4.72C383.212 2.872 384.136 1.948 385.984 1.948H420.508ZM442.684 38.068C442.684 39.916 441.76 40.84 439.912 40.84H433.276C431.428 40.84 430.504 39.916 430.504 38.068V2.788C430.504 0.939999 431.428 0.0159991 433.276 0.0159991H439.912C441.76 0.0159991 442.684 0.939999 442.684 2.788V15.808C443.132 15.08 443.804 14.52 444.7 14.128C445.652 13.68 446.716 13.456 447.892 13.456H450.58C452.316 13.456 453.184 14.324 453.184 16.06V22.192C453.184 23.928 452.316 24.796 450.58 24.796H447.556C446.1 24.796 444.924 25.244 444.028 26.14C443.132 26.98 442.684 28.072 442.684 29.416V38.068ZM416.644 65.704C419.612 65.704 422.104 65.592 424.12 65.368C426.136 65.2 427.76 64.892 428.992 64.444C430.224 64.052 431.092 63.492 431.596 62.764C432.1 62.092 432.352 61.252 432.352 60.244C432.352 59.236 432.1 58.396 431.596 57.724C431.092 56.996 430.224 56.436 428.992 56.044C427.76 55.596 426.136 55.288 424.12 55.12C422.104 54.896 419.612 54.784 416.644 54.784C413.676 54.784 411.184 54.896 409.168 55.12C407.152 55.288 405.528 55.596 404.296 56.044C403.12 56.436 402.252 56.996 401.692 57.724C401.188 58.396 400.936 59.236 400.936 60.244C400.936 61.252 401.188 62.092 401.692 62.764C402.252 63.492 403.12 64.052 404.296 64.444C405.528 64.892 407.152 65.2 409.168 65.368C411.184 65.592 413.676 65.704 416.644 65.704ZM505.486 45.46C504.646 45.348 504.058 45.124 503.722 44.788C503.442 44.396 503.386 43.78 503.554 42.94C504.114 40.14 504.478 37.228 504.646 34.204C504.87 31.124 504.982 28.324 504.982 25.804C504.982 22.556 504.142 20.092 502.462 18.412C500.782 16.676 498.346 15.808 495.154 15.808C491.178 15.808 486.894 15.976 482.302 16.312C477.71 16.648 472.586 16.956 466.93 17.236C466.146 17.292 465.502 17.124 464.998 16.732C464.494 16.284 464.242 15.668 464.242 14.884V8.332C464.242 7.66 464.466 7.1 464.914 6.652C465.418 6.204 466.09 5.924 466.93 5.812C472.866 5.196 478.41 4.804 483.562 4.636C488.77 4.468 493.558 4.384 497.926 4.384C504.198 4.384 508.958 6.008 512.206 9.256C515.454 12.448 517.078 17.152 517.078 23.368C517.078 27.232 516.938 30.956 516.658 34.54C516.378 38.124 515.93 41.484 515.314 44.62C515.146 45.46 514.838 46.02 514.39 46.3C513.942 46.524 513.298 46.58 512.458 46.468L505.486 45.46ZM460.042 67.3C458.194 67.076 457.27 66.18 457.27 64.612V58.396C457.27 56.548 458.194 55.708 460.042 55.876C463.122 56.156 466.594 56.436 470.458 56.716C474.378 56.996 478.242 57.192 482.05 57.304C481.266 56.968 480.65 56.436 480.202 55.708C479.754 54.924 479.53 54 479.53 52.936V37.48C479.53 35.632 480.454 34.708 482.302 34.708H489.022C490.814 34.708 491.71 35.632 491.71 37.48V53.608C491.71 55.904 492.914 57.08 495.322 57.136C496.778 57.192 498.598 57.192 500.782 57.136C502.966 57.08 505.234 56.996 507.586 56.884C509.938 56.772 512.234 56.632 514.474 56.464C516.77 56.296 518.73 56.1 520.354 55.876C521.25 55.764 521.95 55.932 522.454 56.38C522.958 56.828 523.21 57.5 523.21 58.396V64.612C523.21 66.068 522.286 66.964 520.438 67.3C519.15 67.524 517.442 67.72 515.314 67.888C513.242 68.056 510.89 68.196 508.258 68.308C505.626 68.476 502.77 68.588 499.69 68.644C496.666 68.7 493.502 68.728 490.198 68.728C484.262 68.728 478.662 68.616 473.398 68.392C468.19 68.168 463.738 67.804 460.042 67.3ZM562.745 40C562.353 48.96 560.785 55.456 558.041 59.488C555.297 63.52 551.153 65.536 545.609 65.536C542.585 65.536 539.981 64.948 537.797 63.772C535.669 62.596 533.905 60.776 532.505 58.312C531.161 55.848 530.153 52.684 529.481 48.82C528.809 44.956 528.473 40.336 528.473 34.96C528.473 24.264 529.817 16.508 532.505 11.692C535.249 6.876 539.617 4.468 545.609 4.468C548.297 4.468 550.649 4.944 552.665 5.896C554.681 6.792 556.361 8.22 557.705 10.18C559.105 12.084 560.197 14.548 560.981 17.572C561.821 20.54 562.381 24.096 562.661 28.24H567.869C569.605 28.24 570.473 27.428 570.473 25.804V3.45999C570.473 1.724 571.341 0.855998 573.077 0.855998H579.209C580.945 0.855998 581.813 1.724 581.813 3.45999V72.676C581.813 74.412 580.945 75.28 579.209 75.28H573.077C571.341 75.28 570.473 74.412 570.473 72.676V38.74C569.801 39.58 568.877 40 567.701 40H562.745ZM586.433 2.62C586.433 0.883998 587.301 0.0159991 589.037 0.0159991H595.169C596.905 0.0159991 597.773 0.883998 597.773 2.62V72.676C597.773 74.412 596.905 75.28 595.169 75.28H589.037C587.301 75.28 586.433 74.412 586.433 72.676V2.62ZM545.609 15.808C544.489 15.808 543.537 16.144 542.753 16.816C542.025 17.488 541.409 18.58 540.905 20.092C540.457 21.604 540.121 23.592 539.897 26.056C539.729 28.464 539.645 31.432 539.645 34.96C539.645 38.488 539.729 41.484 539.897 43.948C540.121 46.412 540.457 48.4 540.905 49.912C541.409 51.424 542.025 52.516 542.753 53.188C543.537 53.86 544.489 54.196 545.609 54.196C546.785 54.196 547.737 53.86 548.465 53.188C549.249 52.516 549.865 51.424 550.313 49.912C550.817 48.4 551.153 46.44 551.321 44.032C551.545 41.568 551.657 38.544 551.657 34.96C551.657 31.376 551.545 28.38 551.321 25.972C551.153 23.508 550.817 21.52 550.313 20.008C549.865 18.496 549.249 17.432 548.465 16.816C547.737 16.144 546.785 15.808 545.609 15.808ZM634.216 52.432C632.816 52.432 632.116 51.732 632.116 50.332V45.376C632.116 43.976 632.816 43.276 634.216 43.276H656.14C655.3 42.772 654.88 41.96 654.88 40.84V40.168C654.88 38.432 655.748 37.564 657.484 37.564H664.456C666.192 37.564 667.06 38.432 667.06 40.168V41.428C667.06 42.66 667.816 43.276 669.328 43.276H690.328C691.728 43.276 692.428 43.976 692.428 45.376V50.332C692.428 51.732 691.728 52.432 690.328 52.432H634.216ZM662.272 64.276C658.744 64.276 655.916 64.276 653.788 64.276C651.716 64.332 650.12 64.416 649 64.528C647.936 64.696 647.236 64.892 646.9 65.116C646.564 65.34 646.396 65.648 646.396 66.04C646.396 66.432 646.564 66.74 646.9 66.964C647.236 67.188 647.936 67.356 649 67.468C650.12 67.636 651.716 67.72 653.788 67.72C655.916 67.776 658.744 67.804 662.272 67.804C665.8 67.804 668.6 67.776 670.672 67.72C672.8 67.72 674.396 67.636 675.46 67.468C676.58 67.356 677.308 67.188 677.644 66.964C677.98 66.74 678.148 66.432 678.148 66.04C678.148 65.648 677.98 65.34 677.644 65.116C677.308 64.892 676.58 64.696 675.46 64.528C674.396 64.416 672.8 64.332 670.672 64.276C668.6 64.276 665.8 64.276 662.272 64.276ZM628.84 19.756C628.84 14.38 629.456 9.228 630.688 4.3C630.912 3.404 631.276 2.788 631.78 2.452C632.284 2.116 633.012 1.948 633.964 1.948H640.684C641.58 1.948 642.224 2.2 642.616 2.704C643.008 3.208 643.092 3.88 642.868 4.72C641.636 9.816 641.02 14.744 641.02 19.504C641.02 21.968 641.58 23.536 642.7 24.208C643.876 24.88 645.584 25.216 647.824 25.216C648.944 25.216 650.232 25.16 651.688 25.048C653.144 24.88 654.6 24.712 656.056 24.544C657.568 24.32 658.968 24.068 660.256 23.788C661.6 23.452 662.72 23.116 663.616 22.78C664.064 22.612 664.428 22.528 664.708 22.528C665.548 22.528 666.164 23.2 666.556 24.544L668.236 30.004C668.684 31.572 667.984 32.72 666.136 33.448C664.96 33.896 663.588 34.288 662.02 34.624C660.508 34.96 658.884 35.24 657.148 35.464C655.412 35.688 653.648 35.856 651.856 35.968C650.12 36.08 648.496 36.136 646.984 36.136C640.6 36.136 635.98 34.848 633.124 32.272C630.268 29.696 628.84 25.524 628.84 19.756ZM676.972 16.648C676.02 18.16 674.424 18.916 672.184 18.916H660.592C658.856 18.916 657.988 18.048 657.988 16.312V10.18C657.988 8.444 658.856 7.576 660.592 7.576H672.94C674.396 7.576 675.432 7.296 676.048 6.736C676.664 6.176 676.972 5.252 676.972 3.964V2.788C676.972 0.939999 677.896 0.0159991 679.744 0.0159991H686.38C688.228 0.0159991 689.152 0.939999 689.152 2.788V35.548C689.152 37.396 688.228 38.32 686.38 38.32H679.744C677.896 38.32 676.972 37.396 676.972 35.548V16.648ZM662.272 76.54C656.784 76.54 652.248 76.344 648.664 75.952C645.08 75.616 642.224 75.028 640.096 74.188C637.968 73.404 636.484 72.34 635.644 70.996C634.804 69.652 634.384 68 634.384 66.04C634.384 64.08 634.804 62.428 635.644 61.084C636.484 59.74 637.968 58.676 640.096 57.892C642.224 57.052 645.08 56.464 648.664 56.128C652.248 55.736 656.784 55.54 662.272 55.54C667.76 55.54 672.296 55.736 675.88 56.128C679.464 56.464 682.32 57.052 684.448 57.892C686.576 58.676 688.06 59.74 688.9 61.084C689.74 62.428 690.16 64.08 690.16 66.04C690.16 68 689.74 69.652 688.9 70.996C688.06 72.34 686.576 73.404 684.448 74.188C682.32 75.028 679.464 75.616 675.88 75.952C672.296 76.344 667.76 76.54 662.272 76.54ZM701.467 37.564C705.107 37.844 709.531 38.04 714.739 38.152C720.003 38.208 725.603 38.236 731.539 38.236C734.843 38.236 738.007 38.236 741.031 38.236C744.111 38.18 746.967 38.124 749.599 38.068C752.231 38.012 754.583 37.956 756.655 37.9C758.783 37.788 760.491 37.676 761.779 37.564C763.683 37.396 764.635 38.236 764.635 40.084V45.04C764.635 46.664 763.711 47.56 761.863 47.728C760.575 47.84 758.867 47.952 756.739 48.064C754.667 48.12 752.315 48.176 749.683 48.232C747.051 48.288 744.195 48.344 741.115 48.4C738.091 48.4 734.927 48.4 731.623 48.4C725.687 48.4 720.087 48.372 714.823 48.316C709.615 48.204 705.163 48.008 701.467 47.728C699.619 47.56 698.695 46.664 698.695 45.04V40.084C698.695 38.236 699.619 37.396 701.467 37.564ZM757.663 31.684C755.367 31.964 752.959 32.216 750.439 32.44C747.975 32.608 745.343 32.748 742.543 32.86C739.799 32.972 736.831 33.056 733.639 33.112C730.447 33.168 727.003 33.196 723.307 33.196C717.539 33.196 713.143 31.936 710.119 29.416C707.151 26.84 705.667 23.004 705.667 17.908C705.667 16.9 705.667 15.808 705.667 14.632C705.723 13.4 705.779 12.168 705.835 10.936C705.891 9.704 705.947 8.528 706.003 7.408C706.059 6.288 706.115 5.308 706.171 4.468C706.339 2.732 707.403 1.864 709.363 1.864H715.999C717.735 1.864 718.519 2.788 718.351 4.636C718.295 5.364 718.211 6.232 718.099 7.24C718.043 8.248 717.987 9.256 717.931 10.264C717.931 11.216 717.903 12.14 717.847 13.036C717.847 13.932 717.847 14.688 717.847 15.304C717.847 17.432 718.463 19.056 719.695 20.176C720.983 21.296 722.803 21.856 725.155 21.856C731.035 21.856 736.551 21.744 741.703 21.52C746.855 21.296 751.895 20.904 756.823 20.344C758.559 20.176 759.511 20.988 759.679 22.78L760.183 28.996C760.295 29.836 760.099 30.48 759.595 30.928C759.147 31.32 758.503 31.572 757.663 31.684ZM758.923 75.028C753.603 75.532 747.695 75.896 741.199 76.12C734.703 76.4 728.151 76.54 721.543 76.54C715.999 76.54 711.743 75.196 708.775 72.508C705.863 69.876 704.407 66.068 704.407 61.084C704.407 59.628 704.463 58.48 704.575 57.64C704.687 56.744 704.799 55.904 704.911 55.12C705.247 53.272 706.171 52.348 707.683 52.348H714.319C715.271 52.348 715.999 52.6 716.503 53.104C717.007 53.608 717.203 54.28 717.091 55.12C716.979 55.736 716.867 56.464 716.755 57.304C716.643 58.088 716.587 58.844 716.587 59.572C716.587 63.324 718.715 65.2 722.971 65.2C726.163 65.2 729.355 65.144 732.547 65.032C735.795 64.976 738.931 64.892 741.955 64.78C744.979 64.668 747.863 64.5 750.607 64.276C753.407 64.108 755.927 63.912 758.167 63.688C758.951 63.576 759.595 63.744 760.099 64.192C760.659 64.696 760.967 65.396 761.023 66.292L761.443 72.256C761.555 73.936 760.715 74.86 758.923 75.028ZM826.032 65.704C829 65.704 831.492 65.592 833.508 65.368C835.524 65.2 837.148 64.892 838.38 64.444C839.612 64.052 840.48 63.492 840.984 62.764C841.488 62.092 841.74 61.252 841.74 60.244C841.74 59.236 841.488 58.396 840.984 57.724C840.48 56.996 839.612 56.436 838.38 56.044C837.148 55.596 835.524 55.288 833.508 55.12C831.492 54.896 829 54.784 826.032 54.784C823.064 54.784 820.572 54.896 818.556 55.12C816.54 55.288 814.916 55.596 813.684 56.044C812.508 56.436 811.64 56.996 811.08 57.724C810.576 58.396 810.324 59.236 810.324 60.244C810.324 61.252 810.576 62.092 811.08 62.764C811.64 63.492 812.508 64.052 813.684 64.444C814.916 64.892 816.54 65.2 818.556 65.368C820.572 65.592 823.064 65.704 826.032 65.704ZM805.956 25.468C806.012 26.308 806.208 26.896 806.544 27.232C806.936 27.568 807.552 27.736 808.392 27.736H816.372C817.212 27.736 817.8 27.568 818.136 27.232C818.528 26.896 818.752 26.308 818.808 25.468L819.06 20.428H805.704L805.956 25.468ZM798.144 60.244C798.144 49.324 807.44 43.864 826.032 43.864C844.624 43.864 853.92 49.324 853.92 60.244C853.92 71.164 844.624 76.624 826.032 76.624C807.44 76.624 798.144 71.164 798.144 60.244ZM803.856 38.656C800.72 38.656 798.312 37.928 796.632 36.472C794.952 35.016 794.056 32.888 793.944 30.088L792.684 4.636C792.628 3.796 792.852 3.152 793.356 2.704C793.86 2.2 794.56 1.948 795.456 1.948H802.092C803.94 1.948 804.892 2.76 804.948 4.384L805.2 9.508H819.564L819.816 4.384C819.872 2.76 820.824 1.948 822.672 1.948H829.308C831.268 1.948 832.192 2.844 832.08 4.636L830.82 30.088C830.708 32.888 829.812 35.016 828.132 36.472C826.452 37.928 824.044 38.656 820.908 38.656H803.856ZM852.072 38.068C852.072 39.916 851.148 40.84 849.3 40.84H842.664C840.816 40.84 839.892 39.916 839.892 38.068V2.788C839.892 0.939999 840.816 0.0159991 842.664 0.0159991H849.3C851.148 0.0159991 852.072 0.939999 852.072 2.788V15.808C852.52 15.08 853.192 14.52 854.088 14.128C855.04 13.68 856.104 13.456 857.28 13.456H859.968C861.704 13.456 862.572 14.324 862.572 16.06V22.192C862.572 23.928 861.704 24.796 859.968 24.796H856.944C855.488 24.796 854.312 25.244 853.416 26.14C852.52 26.98 852.072 28.072 852.072 29.416V38.068ZM879.007 24.628C879.063 25.468 879.259 26.056 879.595 26.392C879.987 26.728 880.603 26.896 881.443 26.896H888.583C889.423 26.896 890.011 26.728 890.347 26.392C890.739 26.056 890.963 25.468 891.019 24.628L891.271 20.008H878.755L879.007 24.628ZM884.215 62.764C884.271 64.388 885.139 65.2 886.819 65.2H910.843C912.523 65.2 913.391 64.388 913.447 62.764L913.615 59.32H884.047L884.215 62.764ZM883.459 75.7C879.931 75.7 877.215 74.916 875.311 73.348C873.407 71.78 872.371 69.484 872.203 66.46L870.943 45.796C870.887 44.956 871.111 44.284 871.615 43.78C872.119 43.276 872.819 43.024 873.715 43.024H880.435C882.227 43.024 883.151 43.948 883.207 45.796L883.375 48.82H914.287L914.455 45.796C914.567 43.948 915.491 43.024 917.227 43.024H923.947C924.843 43.024 925.543 43.276 926.047 43.78C926.551 44.284 926.775 44.956 926.719 45.796L925.459 66.46C925.291 69.484 924.255 71.78 922.351 73.348C920.447 74.916 917.731 75.7 914.203 75.7H883.459ZM876.739 37.816C870.523 37.816 867.275 35.016 866.995 29.416L865.735 4.636C865.679 3.796 865.903 3.152 866.407 2.704C866.911 2.2 867.611 1.948 868.507 1.948H875.143C876.991 1.948 877.943 2.76 877.999 4.384L878.251 9.088H891.775L892.027 4.384C892.083 2.76 893.035 1.948 894.883 1.948H901.519C903.479 1.948 904.403 2.844 904.291 4.636L903.031 29.416C902.751 35.016 899.503 37.816 893.287 37.816H876.739ZM914.623 22.108C913.727 23.62 912.131 24.376 909.835 24.376H908.323C906.587 24.376 905.719 23.508 905.719 21.772V15.64C905.719 13.904 906.587 13.036 908.323 13.036H910.171C913.139 13.036 914.623 11.636 914.623 8.836V2.788C914.623 0.939999 915.547 0.0159991 917.395 0.0159991H924.031C925.879 0.0159991 926.803 0.939999 926.803 2.788V35.548C926.803 37.396 925.879 38.32 924.031 38.32H917.395C915.547 38.32 914.623 37.396 914.623 35.548V22.108Z" fill="url(#paint0_linear_264_800)"/>
<defs>
<linearGradient id="paint0_linear_264_800" x1="-4" y1="42.5" x2="934" y2="42.5" gradientUnits="userSpaceOnUse">
<stop stop-color="#DD4FFC"/>
<stop offset="0.31" stop-color="#1160F7"/>
<stop offset="0.645" stop-color="#7340FB"/>
<stop offset="1" stop-color="#35CFFA"/>
</linearGradient>
</defs>
</svg>
