<?xml version="1.0" encoding="UTF-8"?>
<svg id="_레이어_1" data-name="레이어 1" xmlns="http://www.w3.org/2000/svg" viewBox="0 0 1080 1080">
  <defs>
    <style>
      .cls-1 {
        fill: #ff5000;
      }
    </style>
  </defs>
  <g>
    <path class="cls-1" d="M206.71,501.58c-.8-5.55-5.39-15-19.81-14.98-9.9,0-16.27,6.27-16.27,12.78,0,5.75,3.58,9.95,11.76,11.42l15.96,3.04c22.69,4.22,34.46,18.78,34.46,35.77,0,18.71-15.6,37.7-43.99,37.7-32.95,0-47.13-21.38-48.81-38.17l24.41-5.88c1.01,10.95,8.39,20.52,24.72,20.52,10.41,0,16.79-5.03,16.79-12.42,0-6.03-4.9-10.42-12.75-11.99l-16.3-3.04c-20.23-3.85-32.46-17.28-32.46-34.94,0-22.52,19.82-38.32,42.7-38.32,29.71,0,40.99,17.8,43.47,31.76l-23.87,6.74Z"/>
    <path class="cls-1" d="M245.29,584.83v-83.58h24.35v9.55c4.3-7.38,15-12.09,24.1-12.09,11.92,0,20.44,4.87,24.72,13.13,6.55-9.43,14.56-13.13,25.82-13.13,15.84,0,30.91,9.24,30.91,31.94v54.18l-24.66-.03v-48.45c0-7.9-4.25-14.06-13.3-14.06s-13.96,6.91-13.96,14.3v48.21l-25.18.03v-48.48c0-7.9-4.2-14.06-13.45-14.06s-13.8,6.91-13.8,14.41v48.14h-25.55Z"/>
    <path class="cls-1" d="M403.54,460.75c8.45,0,15.13,6.72,15.13,14.9s-6.68,15.03-15.13,15.03-14.82-6.77-14.82-15.03,6.79-14.9,14.82-14.9M390.95,501.21h25.6v83.58h-25.6v-83.58Z"/>
    <rect class="cls-1" x="432.56" y="463.08" width="25.6" height="121.72"/>
    <path class="cls-1" d="M551.5,560.78c-4.11,14.46-17.33,26.53-38.57,26.53-23.04,0-43.53-16.48-43.53-44.56s20-44.08,41.71-44.08c25.86,0,41.82,15.99,41.82,42.88,0,3.57-.31,7.43-.5,7.95h-58.11c.52,9.43,9.07,16.11,18.97,16.11,9.22,0,14.4-4.32,16.79-10.9l21.42,6.06ZM528.21,533.03c-.34-6.42-4.61-14.17-16.74-14.17-10.78,0-16.12,7.93-16.63,14.17h33.37Z"/>
    <path class="cls-1" d="M582.85,583.17c1.6,8.05,8.37,13.91,17.91,13.91,12.8,0,20.7-6.19,20.7-21.37v-3.83c-3.08,4.53-10.31,9.4-22.36,9.4-22.18,0-38.81-17.48-38.81-40.73,0-22.02,15.96-40.78,38.81-40.78,13.63,0,20.85,5.96,23.16,10.36v-8.88h24.41v73.13c0,24.02-13.47,44.87-44.67,44.87-24.07,0-39.38-14.77-41.71-29.76l22.56-6.32ZM621.64,540.55c0-11.35-8.19-18.45-17.88-18.45s-17.93,7.1-17.93,18.45,7.77,18.55,17.93,18.55,17.88-7.07,17.88-18.55"/>
    <path class="cls-1" d="M721.8,574.1c-3.63,8.03-12.13,13.03-22.52,13.03-24.48,0-41.47-18.6-41.47-44.38s15.91-44.08,40.62-44.08c14.98,0,21.53,8.29,23.22,12.13v-9.55h24.72v68.6c0,7.74.47,13.11.67,14.94h-24.59c-.23-1.83-.64-6.37-.64-9.92v-.78ZM702.6,565.16c10.29,0,19.05-8.1,19.05-22.23s-8.55-22.04-19.05-22.04-19.09,7.54-19.09,22.04,8.55,22.23,19.09,22.23"/>
    <path class="cls-1" d="M794.42,501.25h16.25v22.39h-16.25v31.25c0,6.91,3.71,8.72,9.25,8.72,2.64,0,5.18-.52,6.68-.85v21.24c-.98.49-5.18,2.33-13.3,2.33-17.28,0-27.9-10.26-27.9-26.92v-35.77l-14.72.02v-22.4h4.15c8.81,0,12.95-5.91,12.95-13.63v-10.78h22.87v24.41Z"/>
    <path class="cls-1" d="M898.62,560.78c-4.06,14.46-17.31,26.53-38.52,26.53-23.06,0-43.53-16.46-43.53-44.56s19.97-44.08,41.71-44.08c25.86,0,41.82,15.99,41.82,42.88,0,3.57-.36,7.43-.47,7.95h-58.19c.47,9.43,9.12,16.11,18.96,16.11,9.25,0,14.46-4.32,16.84-10.9l21.37,6.06ZM875.38,533.03c-.36-6.42-4.66-14.17-16.79-14.17-10.71,0-16.12,7.93-16.69,14.17h33.47Z"/>
  </g>
  <path class="cls-1" d="M924.36,476.84c8.64,0,15.64,7.06,15.64,15.68s-6.99,15.79-15.64,15.79-15.54-7.09-15.54-15.79,6.93-15.68,15.54-15.68M924.36,505.19c6.84,0,12.19-5.48,12.19-12.67s-5.35-12.62-12.19-12.62-12.16,5.5-12.16,12.62,5.36,12.67,12.16,12.67M922.35,501.01h-3.16v-17.13h5.91c3.31,0,5.79,2.33,5.79,5.37,0,2.37-1.54,4.33-3.78,5.01l3.88,6.76h-3.75l-3.55-6.39h-1.33v6.39ZM924.62,491.76c1.92,0,3-.91,3-2.48,0-1.67-1.08-2.6-3-2.6h-2.27v5.08h2.27Z"/>
</svg>