<?xml version="1.0" encoding="UTF-8"?>
<svg id="_레이어_1" data-name="레이어 1" xmlns="http://www.w3.org/2000/svg" viewBox="0 0 1080 1080">
  <defs>
    <style>
      .cls-1 {
        fill: #231f20;
      }

      .cls-2 {
        fill: #070100;
      }
    </style>
  </defs>
  <g>
    <g>
      <g>
        <path class="cls-2" d="M684.78,605.84c-7.65,5.2-18.49,6.35-27.57,6.35h-28.59v-106.82h23.1c10.97,0,22.23.42,30.89,8.22,5.48,4.76,9.09,12.7,9.09,19.92,0,9.24-4.04,15.88-11.98,20.36,12.41,4.47,18.32,13.27,18.32,26.56,0,10.39-4.76,19.63-13.27,25.4ZM656.62,523.83h-8.22v23.1h7.51c7.65,0,16.02-2.15,16.02-11.55s-7.66-11.55-15.31-11.55ZM658.79,565.42h-10.39v28.29h9.96c9.39,0,19.92-2.45,19.92-14,0-10.83-10.25-14.29-19.49-14.29Z"/>
        <path class="cls-2" d="M762.44,614.35c-30.46,0-55.29-21.22-55.29-55.87s24.69-55.3,55.29-55.3c7.94,0,13.57,1.16,18.18,2.89v20.5c-3.45-2.45-10.1-4.91-18.04-4.91-17.9,0-31.62,11.69-34.64,28.29h50.96v18.49h-50.96c3.9,17.32,17.9,27.42,34.06,27.42,7.95,0,14.44-1.87,18.62-5.04v20.63c-4.19,1.45-9.81,2.9-18.18,2.9Z"/>
        <path class="cls-2" d="M845.73,614.35c-30.46,0-55.28-21.22-55.28-55.87s24.68-55.3,55.28-55.3c7.94,0,13.57,1.16,18.2,2.89v20.5c-3.47-2.45-10.11-4.91-18.04-4.91-17.9,0-31.61,11.69-34.65,28.29h50.97v18.49h-50.97c3.9,17.32,17.9,27.42,34.07,27.42,7.94,0,14.44-1.87,18.63-5.04v20.63c-4.19,1.45-9.83,2.9-18.2,2.9Z"/>
        <path class="cls-2" d="M905.35,614.35c-18.91,0-33.92-13.86-34.8-32.77h20.8c.72,8.08,5.62,14.29,14.15,14.29,7.65,0,14.72-5.34,14.72-13.42,0-12.13-10.97-14.44-20.36-18.05-3.31-1.29-6.48-2.45-9.67-4.03-10.83-5.63-15.74-14.44-15.74-26.71,0-17.61,13.86-30.46,31.32-30.46s30.76,13.14,31.61,30.46h-20.21c-.58-7.22-4.47-11.98-11.97-11.98-6.21,0-10.98,4.47-10.98,10.83,0,10.25,9.82,12.28,17.76,14.86,16.16,5.35,28,14.15,28,32.92,0,20.2-14.73,34.07-34.65,34.07Z"/>
      </g>
      <g>
        <g>
          <path class="cls-2" d="M440.95,504.43c-.29-.45-.45-.71-.45-.71,0,0-.16.26-.45.71-2.07,3.24-11.12,17.44-20.41,33.11h41.72c-9.29-15.66-18.33-29.87-20.41-33.11Z"/>
          <path class="cls-2" d="M468.17,549.23h-55.32c-3.89,6.83-7.5,13.49-10.31,19.22h75.95c-2.81-5.73-6.42-12.38-10.31-19.22Z"/>
          <path class="cls-2" d="M482.95,578.7h-84.9c-.77,2.18-1.2,3.95-1.2,5.17,0,8.66,2.71,16.7,7.35,23.39h72.6c4.64-6.69,7.36-14.73,7.36-23.39,0-1.22-.44-2.99-1.2-5.17Z"/>
        </g>
        <path class="cls-2" d="M210.29,595.97c-7.22,10.25-19.64,15.87-31.9,15.87s-24.54-5.48-31.76-15.29c-5.33-7.08-6.64-17.19-6.64-25.84v-67.84h19.77v67.84c0,12.41,4.04,22.66,18.48,22.66s18.47-10.25,18.47-22.66v-67.84h19.78v67.84c0,8.65-1.16,17.9-6.21,25.27Z"/>
        <path class="cls-2" d="M282.05,609.68l-28.3-40.85h-.29v40.85h-19.77v-106.82h32.76c9.39,0,18.48,1.16,25.99,7.22,7.95,6.35,12.56,15.73,12.56,25.84,0,9.1-3.75,19.2-10.25,25.56-5.48,5.19-10.54,7.07-17.76,8.8l29.01,39.41h-23.96ZM266.16,521.33h-12.7v32.63h12.7c10.54,0,19.05-5.2,19.05-16.46s-8.94-16.17-19.05-16.17Z"/>
        <path class="cls-2" d="M374.43,603.32c-7.64,5.21-18.47,6.36-27.57,6.36h-28.57v-106.82h23.09c10.97,0,22.23.43,30.9,8.23,5.48,4.77,9.09,12.7,9.09,19.92,0,9.24-4.04,15.88-11.98,20.35,12.42,4.48,18.32,13.29,18.32,26.56,0,10.39-4.75,19.64-13.28,25.4ZM346.28,521.33h-8.23v23.11h7.51c7.64,0,16.02-2.17,16.02-11.56s-7.65-11.55-15.3-11.55ZM348.45,562.91h-10.39v28.3h9.96c9.38,0,19.92-2.45,19.92-14,0-10.83-10.25-14.3-19.49-14.3Z"/>
        <path class="cls-2" d="M562.44,609.68l-44.61-77.67h-.28v77.67h-19.78v-106.82h22.52l44.17,77.66h.29v-77.66h19.78v106.82h-22.08Z"/>
      </g>
    </g>
    <g>
      <path class="cls-2" d="M304.92,740c3.25,14.67,16.17,25.12,32.07,25.12,19.24,0,32.67-13.17,32.67-32.03,0-15.49-8.1-24.78-27.07-31.05l-2.42-.76c-8.32-2.61-20.9-6.55-20.9-20.81,0-9.93,7.55-17.41,17.56-17.41,8.93,0,15.4,4.94,17.77,13.19h11.39c-3.14-13.2-14.55-22.57-28.52-22.57-16.53,0-29.01,12.06-29.01,28.06,0,11.8,4.43,19.37,14.36,24.54,2.59,1.29,5.33,2.35,8.23,3.47l1.9.74c1.17.45,2.4.89,3.62,1.33,9.4,3.4,22.28,8.04,22.28,23.65,0,11.36-9.53,20.27-21.7,20.27-10.03,0-17.55-6.03-20.16-15.74h-12.07Z"/>
      <path class="cls-2" d="M444.48,653.67c-32.1,0-55.41,23.31-55.41,55.4s22.78,56.04,55.41,56.04c6.31,0,10.98-.8,14.55-1.74v-9.85c-4.43,1.44-9.53,2.21-15.03,2.21-21.33,0-38.15-13.54-42.87-34.49l-1.5-6.69h57.49v-9.38h-57.21l1.18-6.47c3.89-21.33,21.4-35.66,43.55-35.66,5.45,0,10.34.92,14.39,2.25v-9.95c-4.24-1.15-8.95-1.68-14.55-1.68Z"/>
      <path class="cls-2" d="M535.67,653.67c-30.9,0-56.05,25.14-56.05,56.04s25.15,55.41,56.05,55.41,56.04-24.86,56.04-55.41-25.14-56.04-56.04-56.04ZM535.67,755.74c-24.94,0-45.23-20.72-45.23-46.18s20.29-46.5,45.23-46.5,45.23,20.86,45.23,46.5-20.29,46.18-45.23,46.18Z"/>
      <path class="cls-2" d="M609.87,656.06v69.24c0,11.23,2.09,19.7,6.21,25.15,6.57,8.94,18.56,14.68,30.6,14.68s24.07-5.81,30.65-15.16c3.97-5.78,5.84-13.64,5.84-24.66v-69.24h-10.81v69.24c0,26.49-16.19,30.45-25.84,30.45s-25.83-3.95-25.83-30.45v-69.24h-10.82Z"/>
      <path class="cls-2" d="M706.53,762.74h49.67v-9.39h-38.86v-97.29h-10.81v106.68Z"/>
    </g>
  </g>
  <g>
    <g>
      <path class="cls-2" d="M593.41,429.29c1.6,3.17,5.48,4.44,8.65,2.84h0c3.18-1.61,4.45-5.48,2.85-8.65l-8.73-17.22c-1.6-3.17-5.48-4.44-8.64-2.84h0c-3.18,1.61-4.44,5.48-2.84,8.65l8.71,17.23Z"/>
      <path class="cls-2" d="M605.79,419.24c.99,1.98,3.42,2.78,5.4,1.77h0c1.98-1.01,2.78-3.42,1.77-5.41l-5.45-10.76c-1-1.98-3.42-2.78-5.4-1.77h0c-1.99,1-2.78,3.42-1.78,5.4l5.46,10.76Z"/>
      <path class="cls-2" d="M568.34,437.97c1.03,1.97,3.45,2.74,5.43,1.71h0c1.96-1.03,2.73-3.45,1.7-5.43l-5.58-10.7c-1.02-1.97-3.45-2.73-5.41-1.7h0c-1.98,1.02-2.74,3.45-1.72,5.42l5.58,10.69Z"/>
      <path class="cls-2" d="M579.55,436.3c1.6,3.17,5.47,4.44,8.64,2.84h0c3.17-1.6,4.44-5.47,2.84-8.65l-8.71-17.22c-1.61-3.17-5.48-4.43-8.65-2.84h0c-3.17,1.61-4.43,5.48-2.84,8.65l8.72,17.22Z"/>
      <path class="cls-2" d="M503.93,463.13c.97,1.9,3.57,2.53,5.8,1.4l58.82-29.89c2.24-1.13,3.28-3.6,2.31-5.49h0c-.96-1.9-3.55-2.53-5.8-1.4l-58.82,29.89c-2.24,1.13-3.28,3.59-2.32,5.49h0Z"/>
    </g>
    <g>
      <path class="cls-2" d="M486.59,429.29c-1.6,3.17-5.48,4.44-8.64,2.84h0c-3.18-1.61-4.44-5.48-2.84-8.65l8.72-17.22c1.6-3.17,5.48-4.44,8.64-2.84h0c3.17,1.61,4.44,5.48,2.84,8.65l-8.71,17.23Z"/>
      <path class="cls-2" d="M474.21,419.24c-1,1.98-3.42,2.78-5.4,1.77h0c-1.98-1.01-2.78-3.42-1.77-5.41l5.45-10.76c.99-1.98,3.42-2.78,5.4-1.77h0c1.99,1,2.78,3.42,1.78,5.4l-5.45,10.76Z"/>
      <path class="cls-2" d="M511.66,437.97c-1.03,1.97-3.45,2.74-5.43,1.71h0c-1.96-1.03-2.73-3.45-1.7-5.43l5.59-10.7c1.02-1.97,3.45-2.73,5.42-1.7h0c1.97,1.02,2.73,3.45,1.71,5.42l-5.58,10.69Z"/>
      <path class="cls-2" d="M500.44,436.3c-1.6,3.17-5.47,4.44-8.64,2.84h0c-3.17-1.6-4.43-5.47-2.84-8.65l8.72-17.22c1.6-3.17,5.47-4.43,8.64-2.84h0c3.17,1.61,4.44,5.48,2.84,8.65l-8.72,17.22Z"/>
      <path class="cls-2" d="M576.07,463.13c-.98,1.9-3.57,2.53-5.81,1.4l-58.82-29.89c-2.25-1.13-3.28-3.6-2.31-5.49h0c.96-1.9,3.55-2.53,5.79-1.4l58.82,29.89c2.24,1.13,3.28,3.59,2.32,5.49h0Z"/>
    </g>
  </g>
  <g>
    <path class="cls-1" d="M328.67,374.32l3.49,2.7,7.57,16.19,4.4.17.59,1.26-1.06,2.04-3.95,1.85-3.36-1.22-1.54.44c-3.09,5.5-7.75,8.18-13.93,8.06l-2.44-.88-3.06-2.82-1.82-5.98,2.18-5.62c3.63-3.55,7.95-5.84,12.98-6.83l1.01-1.74-1.37-2.91-4.55-2.12c-5.11.99-9.78,3.09-14.01,6.27l-.92-.33.18-2.31,6.86-4.26c4.15-3.15,8.4-3.79,12.77-1.93ZM317.75,396.87l2.87,4.51,3.75.56c5.94-2.09,9.08-6.02,9.4-11.79l-1.8-3.41-1.59-.58-8.96,3.49-3.09,3.68-.56,3.55Z"/>
    <path class="cls-1" d="M362.54,359.42l6.45-2.92,1.28.73,1.88,3.68,1.45,3.84-.4.9-2.04.5c-2.93-3.35-6.68-4.61-11.22-3.78-5.84.63-9.58,3.66-11.21,9.1-.39,5.73,1.63,10.43,6.09,14.1,3.9,2.45,7.93,2.32,12.08-.38,3.15-1.07,5.71-2.93,7.67-5.61l2.87-.82.89,2.37-1.42,1.95-7.88,5.22c-6.25,3.71-12.39,3.68-18.41-.12l-3.35-4.4c-4.2-6.56-4.17-12.69.11-18.41l7.59-4.57,4.58-1.46,3,.08Z"/>
    <path class="cls-1" d="M387.69,350.12l1.24,1.09,10.6-3.11,2.31.7.39,1.33-1.07,1.31-10.19,2.72-1.51,1.37c.11,6.19,2.02,11.92,5.76,17.19,4.07,2.24,7.73,1.41,10.98-2.48l3.08-5.9,2.43.21c.76,5.17-1.51,9.1-6.82,11.79-4.15,2.14-8.22,2.14-12.17,0l-2.6-3.06-5.07-15.75-1.48-.96-3.78.12-.35-2.06,1.95-.57,1.87-1.93-2.2-8.23,1.31-2.03,2.94.13,2.37,8.12Z"/>
    <path class="cls-1" d="M464.4,327.61l3.88,30,2.14,1.98,7.5-1.08,2.01,1.12-1.05,2.45-22.75,2.84-1.51-.74,1.09-2.2,7.47-1.33,1.14-1.76-3.93-27.26-.85-1.02-6.04.17-1.58-1.18.9-2.17,3.93-1.52,6.16-.64,1.49,2.34Z"/>
    <path class="cls-1" d="M500.31,353.25l1.53,1.71,7.11-.55,1.2.79.11,1.38-1.28,1.49c-7.05,1.57-14.08,1.89-21.08.96l-.78-1.07.83-1.65,6.34-.75,1.68-1.97-1.56-19.89-1.23-1.05-7.12-.39-.12-1.58,1.04-1.22,9.38-.74c5.04,4.31,4.11,9.71,3.95,24.52ZM497.91,316.13l.33,4.16-1.74,2.16-2.97.04-1.32-2.43-.28-3.46,1.7-1.72h2.98s1.31,1.25,1.31,1.25Z"/>
    <path class="cls-1" d="M522.9,320.83l-.04,17.61.71,1.39,2.27-.02c2.97-1.75,5.4-3.98,7.27-6.69l-.73-4.35,1.18-.72,9.41-.08,4.12,1.36-1.12,1.59c-6.15-.53-10.95,2.26-14.39,8.4l.72,2.52c3.68,2.61,6.54,6.02,8.55,10.21l2.99,2.5,3.49.85-.68,2.09-10.8.1-1.14-.69,1.79-4.38c-1.94-6.71-5.57-9.74-10.88-9.06l-2.49,3.24c2.19,5.2,1.55,8.88-1.92,11.01l-4.37-.66.17-2.08,1.82-.9.68-1.84c.67-9.89.36-19.74-.95-29.55l-4.13-2.05v-1.13s2.08-.72,2.08-.72l5.05.21,1.34,1.82Z"/>
    <path class="cls-1" d="M586.37,337.29l1.03,5.14-.18,2.45-2.2,1.68-22.54-1.78-2.19,1.43,1.7,5.63,4.74,3.56c5.93.92,11.83.72,17.71-.59l.55,2.12-1.92,1.2-8.58,1.49c-6.95.89-12.53-1.25-16.76-6.44l-1.82-6.58c-1.06-8.31,2.09-13.89,9.47-16.75l6.18-.52c6.92-.52,11.86,2.12,14.82,7.95ZM560.83,338.46l-.15,2.09,1.3,1.41,19.15,1.35,1.47-1.04-.44-3.71-4.2-5.11-10.04-1.15-4.08,2.25-3,3.9Z"/>
    <path class="cls-1" d="M642.3,328.69l-2.63,9.51.43,1.26,1.01.69c6.58-3.03,12.25-2.07,17.02,2.87l2.96,4.41,1.03,4.95c-.31,8.17-4.25,13.62-11.84,16.32l-4.81.36-5.64-1.97-3.9-3.65-4.41,2.07-5.21-1.88.36-1.6,2.15-.43,1.86-1.92,4.37-17.59,2.15-11.68-.52-2-2.97-2.34.53-1.24,2.86-.34,3.33,1,1.88,3.2ZM636.83,350.96c-1.36,5.9.4,10.28,5.29,13.14,4.74,1.75,9,.88,12.8-2.59l2.04-2.77c2.36-5.77,1.02-10.69-4.03-14.74l-4.72-1.76c-5.67-.1-9.47,2.81-11.38,8.72Z"/>
    <path class="cls-1" d="M698.67,361.5l-.17,5.23-.72,2.36-2.54,1.14-21.55-6.85-2.46.89.37,5.87,3.82,4.55c5.56,2.24,11.36,3.4,17.37,3.45l.05,2.2-2.14.72-8.7-.5c-6.97-.7-11.92-4.06-14.86-10.08l-.28-6.82c.86-8.33,5.2-13.05,13.03-14.16l6.13.9c6.86,1.06,11.07,4.76,12.64,11.11ZM673.53,356.85l-.61,1.99.94,1.68,18.34,5.66,1.66-.68.41-3.7-2.92-5.92-9.53-3.41-4.48,1.26-3.82,3.12Z"/>
    <path class="cls-1" d="M735.85,375.8l-.58,5.21-.9,2.29-2.62.93-20.93-8.54-2.51.69-.11,5.88,3.44,4.83c5.37,2.68,11.05,4.29,17.05,4.83l-.12,2.19-2.19.55-8.63-1.19c-6.89-1.26-11.56-5-14.02-11.23l.28-6.82c1.5-8.23,6.2-12.59,14.11-13.08l6.04,1.39c6.75,1.6,10.65,5.62,11.71,12.07ZM711.18,369.17l-.78,1.92.8,1.76,17.84,7.11,1.71-.55.71-3.66-2.44-6.14-9.23-4.15-4.57.89-4.04,2.82Z"/>
    <path class="cls-1" d="M766.77,384.27l4.01.71c.75,2.39.28,4.7-1.38,6.93l-1.55.57-1.34-1.42v-2.6s-3-3.74-3-3.74l-8.36-4.89-4.88.62-1.93,2.92c.23,3.16,1.97,5.48,5.24,6.95,5.65,1.57,9.34,4.99,11.04,10.29l-.07,2.71-3.27,5.08-3.75,1.46-4.72-.28-7.41-3.65-4.64-4.61-4.1-.97-.71-1.12.96-4.11,1.85-3.73.93-.31,1.33,1.43c-1.44,4.53.48,7.88,5.77,10.02,4.45,4.11,8.8,4.8,13.06,2.07,1.64-3.24.71-5.99-2.82-8.29-5.75-1.76-9.94-5.17-12.54-10.25-1.06-4.43.54-7.55,4.83-9.38l5.54.19,9.46,4.66,2.45,2.76Z"/>
  </g>
</svg>