<?xml version="1.0" encoding="UTF-8"?>
<svg id="_레이어_1" data-name="레이어 1" xmlns="http://www.w3.org/2000/svg" viewBox="0 0 1080 1080">
  <path d="M487.85,256.61l.02,3.83c1.94-.73,2.96-1.05,5.03-.41,4.3,1.34,15.17,8.18,18.51,10.51,5.45,3.79,7.11,4.2,4.46,11.53l5.08-2.53.02,7.63,3.81.64-2.48.66-.04,2.5c4.09-.24,4.76,9.74,5.05,13.41,1.62,20.38-3.68,40.32-11.55,58.23-.53,1.2-3.8,4.09-4.25,4.74-.77,1.1,1.49,7.39-4.54,5.15l1.31,4.38c-2.57,3.24-6.62,7.3-10.28,11.53-.82.95-.25,2.82-.67,3.24-1.4,1.4-4.18,1.19-5.06,2.46-.97,1.41-.24,4-.91,5.45-1.16,2.51-4.07,3.97-3.51,7.34l-3.8-1.28,1.1,3.2c-.22,2.54-8.84-1.02-4.93,5.7l-3.8-2.53-1.01,3.57,2.26,2.78-5.08-1.27c1.66,6.58-5.43,5.69-7.33,7.97-1.54,1.85,1.87,4.79-6.68,3.5l5.08,2.52c-3.59.22-6.39,2.5-9.54,3.96-1.27.59-3.26.04-3.93.37-1.68.82-1.63,4.57-5.61,3.34l1.92,2.55-7.04,4.52-3.17-1.97c-1.96.8-.82,2.99-1.45,3.79-3.92,5.01-9.78,2.48-11.8,3.96-.15.11,1.42,2.84-.77,3.68l-1.89-3.81c1.08,7.74-1.66,3.86-4.1,5.14-1.23.65-1.18,2.03-2,2.39-3.36,1.48-12.32,1.48-8.24,6.42l1.6.68c.05,1.19-4.03-.29-2.56,3.18,3.52-.15,10.61,5.15,7.63,8.92,5.46-1.36,4.61,1.65,7.14,3.69,1.08.87,3.38.78,4.08,1.76s0,3.17.27,3.48c.32.37,2.61-1.07,3.85-.59,2.02.79,4.83,6.33,8.89,5.7l-1.28,3.79h7.64s-1.28,3.82-1.28,3.82c7.48-2.5,5.34.24,7.87,2.22.28.22,2.61-.38,4.18.24,24.39,9.66,46.55,12.86,72.69,10.07.52-.06,6.86-1.38,9.19-1.9,6.56-1.46,13.04-5.92,19.41-4.25l-.63-2.54c5.99.85,3.17-4.84,9.53.02l.02-3.85c2.12,1.95,5.05-2.36,8.24-2.57l1.93,2.58c-1.74-6.73,6.27-3.19,7.37-4.03,1.49-1.14.58-5.28,5.37-2.32,3.24-8.59-4.23-12.53-8.18-19.1-.53-.88.71-2.55.27-3.51-.82-1.78-8.13-5.81-4.83-11.79l-2.53,1.29-1.17-5.85,2.43-1.16c-5.91-2.81-2.31-2.51-2.65-6.19-1.34-14.28.19-29.18,4.06-41.84,2.56-8.37,5.34-19.06,8.71-25.56.65-1.25,5.19-2.74,3.9-7.29l2.52,1.29c-2.73-7.86,5.21-7.55,2.56-12.73l3.81,1.27c-.64-7.45,8.97-11.78,8.94-19.11l2.49,1.27c-.53-3.65,2.6-4.33,3.39-5.4.3-.42-.49-1.86-.11-2.27,2.08-2.28,7.05-.87,5.69-8.89,2.77,2.42,5.24-.39,7.17-2.85.35-.45-.47-1.81.35-2.92,1.3-1.75,5.17-1.33,3.94-5.69l3.8,1.3c-.95-5.95,4.1-5.05,4.77-5.63,4.23-3.7,7.95-9.98,14.26-11.05l-.98-2.21c2.03-3.08,7.13-1.23,7.42-1.5,2.73-2.55-3.24-2.09-2.53-3.8,5.66,2.11,6.21-2.62,8.84-3.28,2.92-.74,3.38,2.4,5.8-3.09l1.26,2.54c.78-5.12,17.49-6.52,21.03-5.74,10.19,2.25,24.13,11.03,32.15,17.62,1.45,1.19,4.32,1.76,4.77,2.16,3.55,3.17-5.74.55-2.53,3.78.78.79,4.34-.33,5.63,1.35,1.82,2.37,5.76,9.47,6.95,12.19,5.09,11.66,7.92,36.77,4.75,48.95-.73,2.8-1.94,3.7-4.59,2.47l1.26,6.84-2.6,1.45,2.57,3.81-5.09,1.92,1.14,3.21-2.49,1.41.85,4.35-4.54,1.28c.85,6.45-6.14,19.2-12.77,21.6l2.55,3.79c-4.85-1.07-3.25,2-4.64,3.66-2.06,2.47-4.44,3-4.3,7.8l-2.51-2.53c.05,3.03-3.29,4.36-4.31,6.36-.5.99.6,2.48.48,2.54-.76.4-3.34-.58-4.83.27-.93.53-5.16,9.18-5.38,11.19l-1.87-2.55-3.21,1.29,1.27,3.82-2.28-.96c-.47,2.55-4.55,4.23-5.4,5.74-.9,1.59,0,3.69-.21,3.94-1.26,1.46-7.53,2.16-8.46,2.92-.36.29-1.62,4.87-4.8,5.91-5.93,1.94-2.74,1.85-5.88,3.72-.49.29-2.09-.99-2.19-.87-.3.35.11,2.95-1.33,4.51-.45.49-10.09,4.69-11.59,4.98l.11,3.22-6.27.18c.71,5.31-3.19,3.56-6.41,5.67-1.77,1.16-3.66,2.93-5.8,3.97-3.04,1.48-6.24,3.28-9.53,4.22-.99,1.27,5.89,6.57,7.46,7.45,14.14,8.01,43.24,10.62,58.81,8.3,8.85-1.32,21.54-1.92,32.38-3.77,4.2-.71,7.42-5.13,13.43-1.83l-.63-2.54c2.64.31,4.91.64,4.47-2.53l3.79,2.53.02-3.84c.97.21,1.91,1.02,2.95.87,8.68-1.22,11.67-4.89,19.33-6.64s2.53-1.29,6.94-3.67c.77-.41,7.35-.51,8.69-1.17.42-.21,6.1-6.03,6.99-6.36,3.51-1.3,9.36,2.23,8.68-4.49l7.55-.16v-5.11s4.44,2.56,4.44,2.56l.66-3.84,5.09,1.27-.88-2.28,3.44-5.34,3.16,2.52c1.55-2.08,1.12-4.07,3.53-5.88.34-.25,1.35.61,1.85.36.47-.23,1.27-3.72,5.44-2.11l-1.29-3.8,14.02-6.4-2.52-2.51c3.2-1.07,2.27-2.75,6.37-1.9l-.02-3.2c1.41-.73,5.59,2.85,6.37-1.27l-2.54-1.27c3.48-.85,5.65-4.81,8.13-7.22,1.15-1.12,5.02-.08,4.61-5.54l5.07,1.28v-7.62s6.37,2.52,6.37,2.52l-1.09-3.07c5.61-1.83,1.3-8.9,6.17-5.83l-1.25-5.1,3.8,2.55c-.32-1.11,2.57-7.09,2.87-7.34,2.01-1.67,5.07,2.33,2.25-5.39l5.08-.02-2.54-3.79,5.09-.03-2.54-1.89,4.57-3.21-.75-3.8,3.8,1.26c-2.15-7.61.37-5.39,3.79-10.9l-2.49-3.1,3.81-.03,1.29-15.27,2.53,1.29c-2.76-8.18,2.89-13.44,4.08-21.33,4.83-3.62,6.87.37,10.78,2.14,1.48.67,3.57.39,4.32.85,2,1.25,9.09,9.67,8.69,12.31-2.38,4.89-6.49,11.92-8.17,16.88-1.01,2.97-.73,9.35-2.7,14.37-.63,1.6-3.03,1.38-3.01,2.25l1.24,4.21c-7.35,1.7-3.22,5.14-3.92,8.2-.57,2.48-3.81,2.59-4.6,3.82-1.36,2.12,1.42,4.51-2.64,2.4-3.65,4.88-6.5,11.35-9.98,16.14-4.16,5.72-6.5,4.29-7.9,5.47-.29.25-2.33,6.34-3.08,6.99-9.11,7.84-19.85,15.7-28.94,23.98-3.07,2.8-4.98,7.69-5.36,8.01-1.08.92-5.06-.02-7.39,2.22-.86.83-3.73,6.73-5.1,8.24-1.3,1.42-.81-4.49-3.8-2.53l1.09,2.33c-1.83,1.67-5.1,2.3-6.77,3.17-3.7,1.91-2.35,2.89-3.53,4.37-.63.79-9.54,4.8-11.16,4.14l1.09,2.34c-2.14,2.12-6.95,2.61-8.72,3.62-2.26,1.29-5.06,4.96-5.39,5.14-.95.49-4.14-1.19-5.24-.87-1.31.38-21.64,9.59-23.74,10.87-4.37,2.65-10.84,4.57-17.59,6.58-26.01,7.73-54.93,12.87-84.84,10.42-9.2-.75-19.65-5.8-28.77-5l1.29-2.53c-1.41-1.04-12.05-1.58-13.67-2.22-3.2-1.26-3.7-4.76-4.43-5.16-2.61-1.46-14.66.09-13.84-7.83-2.55,1.4-4.86-.87-6.95-.78-1.14.05-18.12,6.26-20.01,7.09-.33.14-4.97,4.67-5.41,4.76-22.76,4.69-41.27,10.34-66.32,9.26-18.98-.82-35.69-6.99-54.05-10.23l1.29-2.53c-.56-.39-9.48-1.61-10.25-2.03-3.44-1.89-.29-5.82-7.59-3.08l-.63-3.78-3.84,2.49-1.92-5.08c-5.04,4.04-7.97-2.93-9.15-3.44-.59-.26-2.13.83-3.45.24-6.91-3.09-3.69-6.23-5.12-7.62-2.67-2.57-5.81-.39-8.62-1.54-2.43-.99-13.58-11.22-15.72-13.72-2.03-2.37.46-4.44-4.44-4.45l.65-3.71c-6.13-3.21-10.48-1.24-15.92,2.43-1.11-3.99-4.36-3.39-5.71-.01l3.83,1.28c-3.44-.77-5.86,1.6-8.6,2.31-1.22.32-8.14.27-8.61.44-.89.32.03,4.12-5.06,1.09l-.66,3.8-12.75.02-.61,2.55-1.9-2.54c.8,4.56-6.17,1.96-8.41,3.01-1.42.67-1.35,2.63-2.43,3.08-1.76.74-6.36-.87-7.69-.79-.64.04-.45,1.94-2.38,2.58-4.94,1.64-19.2,1.39-24.41,1.15-.6-.03-.42,2.24-1.37,2.45-2.88.66-31-.85-35.32-1.49-9.75-1.45-36-6.73-44.37-10.12-1.97-.8-5.09-7.03-9.91-3.7l-.02-3.86-2.37,1.05-.18-2.29c-2.05-.55-.6,4.6-3.78,2.51-.23-.15-1.47-3.82-2.88-4.58-.95-.52-3.25.58-4.51-.72-2.39-2.46-.86-6.91-9.2-6.14l1.29-2.53-3.68,1.12c-.72-3.39-3.29-4.61-6.52-4.99l1.29-5.05c-3.85.15-8.16-2.6-10.2-5.73-1.82-2.78-2.01-7.23-2.69-8.14-.2-.27-.7,1.86-4.22-3.61-2.81-4.37-6.79-8.93-8.37-14.36,4.13-.51,8.99,1.19,12.38,3.52,2.35,1.61,2.74,3.36,4.26,4.65,6.9,5.88,11.23,11.36,17.3,18.36,6.93,8,17.91,13.64,29.68,17.44,4.67,1.51,13.6,2.05,17.3,3.38.87.31.43,2.17.6,2.28.73.47,1.85-1.87,3.11-2.01,3.25-.38,18.88,2.55,24.22,2.67s14.27.7,19.15.21c2.29-.23,3.2-2.09,5.06-2.16,1.46-.05-.39,3.14,1.91,2.57l.72-2.61,6.29,1.36-.64-2.55c1.03-.77,12.04,3.89,11.49-2.55h1.24c-.62,3.49,5.33,3.25,5.89-.11l3.71,1.36.62-3.79,2.07,2.56,4.28-.03-1.27-3.8,5.07,2.53.77-2.66,3.78,1.26c.94-3.54,5.62-2.37,7.37-2.8,4.72-1.16,9.39-4.33,14.85-3.44l-1.27-3.8,3.15,2.55c3.59-2.32,7.82-2.47,11.8-4.46.29-.14.27-1.35.59-1.5,1.45-.68,1.45,2.73,4.2-4.23l2.53,3.79,5.6-2.69-.75-2.13,2.15-.83c-4.58-12.04-8.12-26.78-9.76-39.69-.43-3.4,2.77-6.82-1.67-10.65,5.16-1.74,3.51-14.44,4.63-20.47,2.1-11.22,6.72-22.42,9.85-32.79.08-.26,1.5-.22,1.64-.51.36-.73-.9-1.96-.76-2.16.39-.56,3.98-.7,4.8-1.57.5-.53,2.88-11.57,4.03-13.85l2.33,1.08c.81-3.21,3.44-4.56,5.34-6.81,3.09-3.65,3.58-3.72,6.39-6.64,1.66-1.73,3.07-6.92,3.95-7.74.25-.24,3.02.7,4.13-.11,1.18-.86.36-2.86,1.08-3.64,3.07-3.31,23.81-17.68,28.75-20.64,14.12-8.44,31.1-15.45,47.36-17.91l1.26-2.54ZM503.13,284.68c-1.36-.21-2.56-.8-3.98-.66-7.62.72-21.88,6.55-29.12,9.98-.91.43-2.35-.76-2.54-.45l1.26,3.81c-5.34-2.76-6.19,2.15-11.27,2.73l-.2,4.91-3.15-2.53c-4.77,4.7-15.11,9.21-19.42,14.41-.69.83-.09,2.77-.43,3.31-.31.51-9.86-1.26-6.28,6.45l-5.08-1.27-1.29,6.39-3.8-1.28,1.25,5.09-2.3-1.04c-.42,2.79-3.65,3.55-4.67,4.98-1.43,2-4.49,10.39-5.05,11.31-.86,1.41-4.74,2.45-5.8,4.5l2.53,1.88c-3.19-.3-3.91,7.03-5.22,10.48-5.79,15.27-10.08,40.14-6.85,57.62.88,4.79,1.73,10.1,7.45,9.67,1.57-4.66,8.27-3.04,8.48-7.7l3.77,2.54,1.21-3.25,3.91.69-1.26-3.81,6.31,1.27.06-3.84c3.33,2.64,5.83-5.92,10.17-2.54l.12-4.99,4.99-.08v-5.12s8.92-1.28,8.92-1.28l-1.27-5.07,2.52,2.53,1.47-4.91,6.19-.18-1.28-5.07c1.17-.04,2.95.07,3.84-.61,2.43-1.86-.5-6.12,3.81-3.22l-1.26-3.81,5.09-.02-1.07-3.64,3.89-3.69c3.12,2.45,3.99-6.44,6.77-9.31,1.18-1.22,3.02.2,3.09.06.62-1.14,2.28-6.93,3.43-8.87,9.28-15.58,18.55-31.12,21.62-50.49l.47-25.88ZM719.96,350.61c3.3-9.88,2.2-39.99-7.63-45.36-2.25-1.23-8.39-1.44-11.11-1.42-11.09.08-19.25,4.67-27.37,9.68-3.28,2.02-5.59,7.81-10.23,4.24l-.02,5.1c-2.87-2.91-6.24,5.23-8.58,6.4-1.81.9-3.9-.07-4.02.09-.27.33.12,2.15-.6,3.16-2.49,3.53-4.11,1.97-4.33,2.14-2.37,1.9-6.18,5.78-4.12,8.57-7.63-2.68-7.16,7.58-7.99,8.66-1.32,1.71-6.32,2.3-7.11,2.97-.15.13.84,2.16-.28,4.04-1.54,2.57-4.56,6.7-7.48,7.33l2.49,5c-.56.47-2.65-1.52-4.51-.14s-13.4,20.56-9.5,24.34l-5.08-1.26c.57,7.19-3.29,15.34-6.41,22.01-.38.8-2.15.91-2.24,1.11-.43,1.01.53,11.74.98,13.8l-2.52-2.53c1.8,6.09-1.06,11.28-.96,17.16.16,9.41,3.01,24.48,7.62,32.84,1.58,2.87,3.73,5.26,7.35,4.74l-1.26-2.49,3.19-1.34,3.16,2.55-1.27-3.8,5.1,1.26-1.29-2.5c5.99.09,3.4-5.62,10.2-2.6-2.83-6.27,8.63-5.12,10-6.53.4-.41-.95-6.98,7.84-4.94l-1.23-2.45c6.6.9,8.41-7.31,8.93-7.69.3-.22,4.41,2.63,6.29-1.96l-2.54-1.89,4.47,1.2c1.72-4.69,5.24-8.5,10.8-8.9-3.38-4.93,7.22-2.62,6.33-8.22,4.31,1.78.95-3.57,5.12-3.22l-2.53-3.78c6.94,3.66,6.03-3.21,9-5.68,1.02-.85,2.94-.31,3.86-1.51.96-1.27.7-5.15,2.35-6.3l3.89.73-2.55-3.78c4.45.1,2.63-3.43,2.82-3.64,1.19-1.34,7.75-6.22,9.61-9.35.23-.39-.68-6.71,1.69-8.6l2.41,1.19c.89-.65,1.72-11.67,5.2-12.25-2.76-5.42,1.11-3.61,2.83-8.1,1.99-5.2-1.07-11.92,3.34-16.1l-2.11-2.01Z"/>
  <path d="M423.8,586.97c.38.13.37,1.46,1.04,1.69,12.83,4.34,24.45,8.85,36.26,15.64l-2.53,2.51c7.12-.87,6.4,6.14,12.72,6.4l-2.53,2.52c1.07.05,2.56-.24,3.41.39,2.31,1.7,15.73,18.54,17.49,21.39,5.51,8.94,10.68,21.33,12.27,31.67,11.81.59,23.68-1.8,35.43-.84,7.41.6,21.06,3.04,28.52,4.82.51.12,1.98,3.44,6.45,2.48,3.07-1.69.64-5.92,1.13-8,.66-2.76,5.6-9.83,5.78-10.48.36-1.32-.3-6.18.33-7.04l2.53,1.29c-1.56-4.78-.06-5.39,1.67-8.98,2.38-4.93,1.89-1.65,4.42-3.98.31-.29.86-6.17,2.05-8.26.77-1.36,4.59-4.33,5.77-6.56,2.31-4.35,3.32-4.42,4.59-6.64.18-.32-.15-6.77,1.88-5.07.47.39-1.04,3.05,1.27,2.54l.02-5.1,2.53,1.29-1.27-6.36c5.72-.05,10.91-7.34,14.93-9.87,4.12-2.59,11.37-2.42,11.84-6.69l2.51,2.52c-.14-.93.01-2.06.93-2.5,12.5-5.95,29.17-8.38,42.92-6.3,5.56.84,23.31,6.52,27.94,9.03,1.71.93,1.98,3.23,2.26,3.38.51.27,2.39-1.2,3.92-.77.74.21,5.84,2.15,6.07,2.38.44.44-2.05,3.79.67,4.97,1.31-5.1,1.82-.69,4.55.53,9.8,4.41,20.66,13.31,28.36,21.15,12.27,12.49,26.41,34.66,30.43,53.76.85,4.03-1.22,11.79,2.22,11.17l-2.53,3.17c-.41,1.13,2.05.21,2.39,1.24,1.2,3.65-6.41,23.25-5.16,29.14l-1.04,1.46c-5.01-1.43-4.63,11.73-6.91,15.57-1,1.68-6.4,5.2-7.93,7.12-.78.98-.26,3.45-1.2,4.59-4.25,5.15-5.72,5.22-9.57,11.43-.11.17-2.37-.9-4.06.06-31.79,17.98-58.7,24.65-96.86,17.48-1.13-.21-2.02-1.28-2.76-2.13l-1.26,2.54-1.93-5.09-6.96,2.57c-2.32-5.72-3.67-2.39-6.62-3.54-11.9-4.62-31.04-20.4-39.4-30.85-.98-1.23-3.01-6.24-4.24-7.98-1.53-2.17-5.43-1.38-2.59-6.04h-3.86c2.24-2.99-.41-2.23-.85-3.21-2.82-6.29-2.24-9.34-6.04-14.56-.65-.9-2.78-15.56-3.81-18.28-.57-1.5-1.62-3.98-2.94-4.81-4.33-2.73-29.95,1.03-36.68-.92-1.11,3.6-2.02,1.09-4.7,1.3-8.09.64-15.66,1.23-23.75,2.44l-2.75,13.83-3.79.67,2.55,4.4-3.53,1.86,1.07,3.73c-3,5.65-7.74,13.62-12.83,20.53-2.41,3.27-5.23,11.75-8.9,9.55l-.02,5.12-2.47-1.25c-.11,6.92-9.24,5.29-9.01,12.72l-5.07-1.27c1.97,3.31-3.13,5.73-5.78,7.66-16.17,11.83-36.83,13.43-55.99,17.79,1.01-2.32-5.99-2.51-6.38-2.37-.74.26-.53,2.44-1.27,2.45-1.88.03-12.33-3.16-15.52-3.45-2.41-.22-4.41.76-6.76.83l1.3-2.53c-6.1,2.59-10.65-1.51-16.58-2.57l1.29-3.79h-3.82s.64,5.07.64,5.07l-3.2-6.35-1.89,3.8c-1.6-1.79-4.04-1.76-6.02-2.67-18.92-8.65-39.48-23.37-51.54-43.44-.34-.56,1.06-2.28.3-3.5-1.16-1.88-9.59-5.41-3.25-7.04-8.6-7.65-3.67-22.22-10.18-30.58l3.8.64-.03-2.51c-4.34.42-.63-6.95-3.78-10.21l5.09,1.25-2.53-3.79,2.44-.54c-3.93-5.53,3.52-8.05-1.17-12.19l2.35-.22-.96-3.49c4.86-.55,2.89-5.4,2.42-9.03l3.8,1.26c-.33-3.5.83-7.07,2.23-10.14.66-1.44,6.48-12.06,7.03-12.52,1.92-1.6,4.15,2.32,2.71-4.14,7.62-1.14,6.3-12.26,14.77-11.42l-2.54-1.27,1.27-1.94,3.83.67-1.26-5.08,5.08,2.53-.13-3.16,6.49-1.93-2.53-2.52c4.86,1.18,10.43-6.64,12.21-7.33s9.79-1.09,11.98-.33l-1.29-2.53c4.16.93,4.85-2,6.92-2.81,19.96-7.84,49.11-6.6,71.66.77ZM706.57,599.68c-15.54-2.76-31.82-4.27-46.38,3.12-7.38,3.75-13.71,12.54-22.06,14.23l2.53,2.52-6.35,1.3,2.53,2.52c-4.8.93-6.01,7.63-9.48,10.25-1.58,1.2-4.19,1.04-4.48,1.33-.32.31.85,2.43.44,3.73-.88,2.82-3.95,3.85-4.06,4.12-.46,1.07,1.18,2.32.44,3.52-.93,1.49-2.5-1.46-4.57,3.14-2.96,6.57-4.99,15.44-7.69,22.62-.4,1.06-2.01,1.04-2.08,1.22-.26.64,1.36,6.09-1.82,8.49l-2.33-1.09c-1.41,3.16,1.95,2.17,2.29,3.13.12.34-.04,6.78-.16,7.15-.78,2.59-3.33,2.02-3.52,3.29-2.34,16.14,12.2,46.18,23,58.07,4.06,4.47,13.72,7.65,14.05,13.68l1.26-2.53c3.17-1.09,3.05,2.97,4.01,3.56.43.27,1.96-.8,2.75-.56,15.13,4.7,39.64.55,54.89-4.36,8.04-2.58,15.38-7.8,23.67-8.85l-2.53-2.52c2.93-.21,4.29-2.77,6.37-4.28.54-.39,2.19.47,2.38.23.36-.47-.08-2.34.58-3.11,4.05-4.69,11.55-8.44,11.12-14.44l2.48.6.11-3.1,3.7-.11v-8.88s3.83-.03,3.83-.03l-1.2-2.44,5-1.38-3.81-3.16,3.8-.64-1.08-7.07c7.86-13.49,5.76-33.53,1.59-47.85-4.65-15.98-13.68-30.96-26.46-41.33l-22.76-14.05ZM437.72,612.41c-8.14-5.46-23.72-12.52-33.47-13.1-7.25-.43-17.47,2.36-24.02,4.97l-1.88-2.53c.66,6.43-1.18,2.14-3.85,3.07-2.32.81-10.07,4.19-12.72,5.44-3.21,1.51-3.05,5.41-8.92,2.95l1.29,2.5c-4.07.83-8.59,2.83-10.75,6.02l-3.26-.89c3.07,5.74-2.43,4.96-4.94,7.15s-4.27,5.66-7.45,7.12l.93,2.27-6.37.02,2.51,3.13c-2.48,3.35-5.18,5.65-7.46,9.23-2.08,3.27-2.81,9.27-3.99,12.07-.71,1.67-3.79,1.9-4.57,4.79-.9,3.37,3.17,4.52-3.05,7.07l2.56,1.27-2.64,1.34,1.4,3.68c-2.68,2.06-3.09,19.63-2.45,24.14,3.63,25.51,22.91,53.62,48.25,62.31,3.54,1.22,9.8,1.31,13.12,2.18,1.05.27.77,2.35,1.67,2.46,3.23.39,11.6.14,15.06-.13,6.98-.55,13.94-3.56,21.1-3.65l-1.29-2.53c5.91,2.53,4.87-1.03,5.94-1.27,2.08-.48,4.62.22,6.81-.02l-1.3-2.51c6.9.17,6.37-6.94,12.76-3.86l-1.3-2.53c3.82,0,8.38-5.06,10.39-7.55l3.63,1.19.22-3.63,3.62-.21-1.27-6.36,5.09,1.26-1.3-2.53c3.96,1.15,6.23-4.5,5.68-7.7l5.79-1.24-2.53-2.52,2.28-.18-1.04-2.37,3.56-.21c-.52-4.17,2.7-5.07,3.21-6.47.79-2.17-.45-5.64-.11-6.71.37-1.19,3.86-5.42,4.5-9.25.57-3.4-2.4-10.09-2.04-11.13.33-.95,3.74.29,1.08-3.68l2.55-.77-3.83-1.27c-.53-.33,2.66-10.81,2.67-12.09,0-3.8-4.22-9.42-1.56-14.09l-2.34-.57,2.52-1.89c-2.62-1.61-.4-5.03-3.79-4.48l2.51-3.78-2.27-.19,1-4.93-2.52,1.29c-.75-4.8-4.38-13.14-7.66-16.85-3.14-3.54-11.7-10.53-15.74-13.24Z"/>
  <path d="M548.7,796.95c.55.56.13,2.48.67,2.99,1.59,1.54,4.34,2.12,5.36,4.33,2.33,5.07-1.14,16.34-7.08,18.35-4.9,1.65-18.93.37-23.9-1.45-4.15-1.52-5.99-6.68-11.69-6.78l.09-2.47,2.46-.67c-7.48-8.93.51-18.85,10.84-18.57,3.99.11,21.16,2.12,23.24,4.26Z"/>
  <path d="M423.96,680.93l.25,2.29c2.63-1.98,4.3-2.97,7.68-2.04.64.18,9.48,4.48,9.84,4.9s3.12,9.65,3.34,11.03c.54,3.34-.25,15.02-1.35,17.69-.93,2.26-4.1,2.21-6.08,4.18-1.32,1.31-3.03,6.17-4.14,6.38-2.93.54-16.38-2.09-18.75-4.04-1.97-1.63-2.77-5.65-5.51-7.49-1.53-1.02-3.97-.72-5.1-1.62-2.8-2.22-4.46-16.29-2.32-19.71,1.68-2.69,6.48-2.12,3.25-6.7,3.97,1.4,4.12-3.02,5.9-3.64,3.09-1.07,9.14.42,13-1.22Z"/>
  <path d="M661.74,720.9c-2.81,3.2-3.67,3.83-8.08,4.13s-13.54.27-17.14-1.35c-2.4-1.09-14.94-9.88-16.28-11.77-4.54-6.39,2.06-20.45,9.67-22.32,9.39.22,18.16.62,27,2.2,9.18,8.71,14.22,18.43,4.83,29.11Z"/>
</svg>